AtmaInstanceTest.ufo
<glyph name="exclam" format="1">
  <advance width="261"/>
  <unicode hex="0021"/>
  <outline>
    <contour>
      <point x="63" y="699"/>
      <point x="62" y="676"/>
      <point x="62" y="658" type="curve" smooth="yes"/>
      <point x="62" y="528"/>
      <point x="65" y="402"/>
      <point x="80" y="226" type="curve"/>
      <point x="98" y="222"/>
      <point x="119" y="219"/>
      <point x="141" y="219" type="curve" smooth="yes"/>
      <point x="157" y="219"/>
      <point x="168" y="220"/>
      <point x="177" y="223" type="curve"/>
      <point x="173" y="376"/>
      <point x="182" y="575"/>
      <point x="204" y="729" type="curve"/>
      <point x="188" y="734"/>
      <point x="171" y="737"/>
      <point x="149" y="737" type="curve" smooth="yes"/>
      <point x="117" y="737"/>
      <point x="90" y="729"/>
      <point x="64" y="716" type="curve"/>
    </contour>
    <contour>
      <point x="74" y="73"/>
      <point x="74" y="37"/>
      <point x="76" y="-4" type="curve"/>
      <point x="92" y="-10"/>
      <point x="115" y="-15"/>
      <point x="140" y="-15" type="curve" smooth="yes"/>
      <point x="160" y="-15"/>
      <point x="177" y="-14"/>
      <point x="200" y="-9" type="curve"/>
      <point x="196" y="31"/>
      <point x="195" y="63"/>
      <point x="192" y="105" type="curve"/>
      <point x="152" y="107"/>
      <point x="122" y="109"/>
      <point x="76" y="108" type="curve"/>
    </contour>
  </outline>
</glyph>
<glyph name="numbersign" format="1">
  <advance width="611"/>
  <unicode hex="0023"/>
  <outline>
    <contour>
      <point x="114" y="-35" type="curve"/>
      <point x="217" y="192"/>
      <point x="268" y="374"/>
      <point x="297" y="592" type="curve"/>
      <point x="272" y="612"/>
      <point x="237" y="621"/>
      <point x="214" y="623" type="curve"/>
      <point x="197" y="430"/>
      <point x="129" y="181"/>
      <point x="42" y="-8" type="curve"/>
      <point x="65" y="-23"/>
      <point x="85" y="-31"/>
    </contour>
    <contour>
      <point x="11" y="193" type="curve"/>
      <point x="207" y="154"/>
      <point x="390" y="144"/>
      <point x="584" y="156" type="curve"/>
      <point x="597" y="185"/>
      <point x="596" y="220"/>
      <point x="592" y="243" type="curve"/>
      <point x="423" y="225"/>
      <point x="178" y="234"/>
      <point x="19" y="267" type="curve"/>
      <point x="11" y="242"/>
      <point x="8" y="221"/>
    </contour>
    <contour>
      <point x="25" y="396" type="curve"/>
      <point x="220" y="357"/>
      <point x="403" y="347"/>
      <point x="597" y="360" type="curve"/>
      <point x="610" y="389"/>
      <point x="610" y="424"/>
      <point x="606" y="446" type="curve"/>
      <point x="437" y="428"/>
      <point x="191" y="437"/>
      <point x="33" y="470" type="curve"/>
      <point x="24" y="445"/>
      <point x="21" y="424"/>
    </contour>
    <contour>
      <point x="341" y="-40" type="curve"/>
      <point x="444" y="187"/>
      <point x="493" y="369"/>
      <point x="522" y="588" type="curve"/>
      <point x="497" y="608"/>
      <point x="463" y="616"/>
      <point x="439" y="618" type="curve"/>
      <point x="422" y="425"/>
      <point x="356" y="176"/>
      <point x="269" y="-13" type="curve"/>
      <point x="292" y="-28"/>
      <point x="312" y="-36"/>
    </contour>
  </outline>
</glyph>
<glyph name="dollar" format="1">
  <advance width="417"/>
  <unicode hex="0024"/>
  <outline>
    <contour>
      <point x="273" y="179" type="curve" smooth="yes"/>
      <point x="273" y="136"/>
      <point x="250" y="110"/>
      <point x="206" y="110" type="curve" smooth="yes"/>
      <point x="150" y="110"/>
      <point x="114" y="167"/>
      <point x="117" y="252" type="curve"/>
      <point x="89" y="252"/>
      <point x="50" y="247"/>
      <point x="13" y="232" type="curve"/>
      <point x="13" y="124"/>
      <point x="84" y="37"/>
      <point x="208" y="37" type="curve" smooth="yes"/>
      <point x="314" y="37"/>
      <point x="401" y="102"/>
      <point x="401" y="203" type="curve" smooth="yes"/>
      <point x="401" y="290"/>
      <point x="351" y="341"/>
      <point x="266" y="403" type="curve" smooth="yes"/>
      <point x="204" y="449"/>
      <point x="164" y="489"/>
      <point x="164" y="546" type="curve" smooth="yes"/>
      <point x="164" y="587"/>
      <point x="187" y="611"/>
      <point x="221" y="611" type="curve"/>
      <point x="261" y="611"/>
      <point x="281" y="580"/>
      <point x="293" y="503" type="curve"/>
      <point x="335" y="504"/>
      <point x="370" y="512"/>
      <point x="398" y="528" type="curve"/>
      <point x="379" y="630"/>
      <point x="326" y="687"/>
      <point x="219" y="687" type="curve" smooth="yes"/>
      <point x="103" y="687"/>
      <point x="34" y="614"/>
      <point x="34" y="519" type="curve" smooth="yes"/>
      <point x="34" y="425"/>
      <point x="91" y="376"/>
      <point x="158" y="323" type="curve" smooth="yes"/>
      <point x="217" y="276"/>
      <point x="273" y="240"/>
    </contour>
    <contour>
      <point x="259" y="649" type="line"/>
      <point x="254" y="694"/>
      <point x="254" y="735"/>
      <point x="259" y="779" type="curve"/>
      <point x="230" y="784"/>
      <point x="196" y="782"/>
      <point x="172" y="773" type="curve"/>
      <point x="169" y="735"/>
      <point x="176" y="688"/>
      <point x="182" y="651" type="curve"/>
    </contour>
    <contour>
      <point x="159" y="-66" type="curve"/>
      <point x="188" y="-71"/>
      <point x="221" y="-70"/>
      <point x="246" y="-61" type="curve"/>
      <point x="250" y="-22"/>
      <point x="246" y="25"/>
      <point x="242" y="61" type="curve"/>
      <point x="165" y="64" type="line"/>
      <point x="169" y="16"/>
      <point x="166" y="-19"/>
    </contour>
  </outline>
</glyph>
<glyph name="percent" format="1">
  <advance width="875"/>
  <unicode hex="0025"/>
  <outline>
    <contour>
      <point x="231" y="767" type="curve"/>
      <point x="109" y="767"/>
      <point x="30" y="672"/>
      <point x="30" y="532" type="curve"/>
      <point x="30" y="428"/>
      <point x="75" y="332"/>
      <point x="182" y="332" type="curve" smooth="yes"/>
      <point x="329" y="332"/>
      <point x="380" y="478"/>
      <point x="380" y="595" type="curve"/>
      <point x="380" y="703"/>
      <point x="325" y="767"/>
    </contour>
    <contour>
      <point x="211" y="700" type="curve" smooth="yes"/>
      <point x="250" y="700"/>
      <point x="270" y="659"/>
      <point x="270" y="562" type="curve" smooth="yes"/>
      <point x="270" y="483"/>
      <point x="251" y="399"/>
      <point x="204" y="399" type="curve" smooth="yes"/>
      <point x="159" y="399"/>
      <point x="137" y="474"/>
      <point x="137" y="546" type="curve" smooth="yes"/>
      <point x="137" y="641"/>
      <point x="168" y="700"/>
    </contour>
    <contour>
      <point x="696" y="419" type="curve"/>
      <point x="574" y="419"/>
      <point x="495" y="324"/>
      <point x="495" y="184" type="curve"/>
      <point x="495" y="80"/>
      <point x="540" y="-15"/>
      <point x="647" y="-15" type="curve" smooth="yes"/>
      <point x="794" y="-15"/>
      <point x="845" y="130"/>
      <point x="845" y="247" type="curve"/>
      <point x="845" y="355"/>
      <point x="790" y="419"/>
    </contour>
    <contour>
      <point x="676" y="352" type="curve" smooth="yes"/>
      <point x="715" y="352"/>
      <point x="735" y="311"/>
      <point x="735" y="214" type="curve" smooth="yes"/>
      <point x="735" y="135"/>
      <point x="716" y="51"/>
      <point x="669" y="51" type="curve" smooth="yes"/>
      <point x="624" y="51"/>
      <point x="602" y="126"/>
      <point x="602" y="198" type="curve" smooth="yes"/>
      <point x="602" y="293"/>
      <point x="633" y="352"/>
    </contour>
    <component base="fraction" xOffset="240" yOffset="-3"/>
  </outline>
</glyph>
<glyph name="parenleft" format="1">
  <advance width="355"/>
  <unicode hex="0028"/>
  <outline>
    <contour>
      <point x="124" y="309" type="curve" smooth="yes"/>
      <point x="124" y="471"/>
      <point x="193" y="632"/>
      <point x="362" y="746" type="curve"/>
      <point x="336" y="776"/>
      <point x="311" y="795"/>
      <point x="284" y="807" type="curve"/>
      <point x="114" y="679"/>
      <point x="23" y="511"/>
      <point x="23" y="303" type="curve" smooth="yes"/>
      <point x="23" y="113"/>
      <point x="117" y="-50"/>
      <point x="272" y="-171" type="curve"/>
      <point x="316" y="-150"/>
      <point x="333" y="-134"/>
      <point x="350" y="-112" type="curve"/>
      <point x="197" y="8"/>
      <point x="124" y="139"/>
    </contour>
  </outline>
</glyph>
<glyph name="plus" format="1">
  <advance width="421"/>
  <unicode hex="002B"/>
  <outline>
    <contour>
      <point x="39" y="385" type="curve"/>
      <point x="35" y="357"/>
      <point x="33" y="334"/>
      <point x="33" y="304" type="curve"/>
      <point x="138" y="289"/>
      <point x="274" y="288"/>
      <point x="385" y="304" type="curve"/>
      <point x="392" y="329"/>
      <point x="396" y="356"/>
      <point x="396" y="384" type="curve"/>
      <point x="260" y="371"/>
      <point x="150" y="371"/>
    </contour>
    <contour>
      <point x="165" y="157" type="curve"/>
      <point x="193" y="154"/>
      <point x="220" y="154"/>
      <point x="246" y="158" type="curve"/>
      <point x="262" y="271"/>
      <point x="261" y="407"/>
      <point x="246" y="510" type="curve"/>
      <point x="218" y="512"/>
      <point x="194" y="511"/>
      <point x="166" y="506" type="curve"/>
      <point x="179" y="377"/>
      <point x="178" y="270"/>
    </contour>
  </outline>
</glyph>
<glyph name="comma" format="1">
  <advance width="199"/>
  <unicode hex="002C"/>
  <outline>
    <contour>
      <point x="178" y="98" type="curve"/>
      <point x="142" y="107"/>
      <point x="99" y="110"/>
      <point x="57" y="107" type="curve"/>
      <point x="56" y="-1"/>
      <point x="43" y="-101"/>
      <point x="15" y="-213" type="curve"/>
      <point x="42" y="-221"/>
      <point x="70" y="-226"/>
      <point x="102" y="-228" type="curve"/>
      <point x="150" y="-113"/>
      <point x="173" y="-10"/>
    </contour>
  </outline>
</glyph>
<glyph name="period" format="1">
  <advance width="210"/>
  <unicode hex="002E"/>
  <outline>
    <contour>
      <point x="176" y="29"/>
      <point x="178" y="64"/>
      <point x="180" y="105" type="curve"/>
      <point x="123" y="114"/>
      <point x="77" y="108"/>
      <point x="45" y="100" type="curve"/>
      <point x="45" y="59"/>
      <point x="47" y="33"/>
      <point x="50" y="-11" type="curve"/>
      <point x="88" y="-16"/>
      <point x="123" y="-16"/>
      <point x="169" y="-11" type="curve"/>
    </contour>
  </outline>
</glyph>
<glyph name="slash" format="1">
  <advance width="464"/>
  <unicode hex="002F"/>
  <outline>
    <contour>
      <point x="184" y="60"/>
      <point x="358" y="415"/>
      <point x="479" y="701" type="curve"/>
      <point x="451" y="729"/>
      <point x="414" y="747"/>
      <point x="388" y="752" type="curve"/>
      <point x="279" y="484"/>
      <point x="79" y="49"/>
      <point x="-41" y="-164" type="curve"/>
      <point x="-21" y="-180"/>
      <point x="13" y="-196"/>
      <point x="40" y="-205" type="curve"/>
    </contour>
  </outline>
</glyph>
<glyph name="zero" format="1">
  <advance width="564"/>
  <unicode hex="0030"/>
  <outline>
    <contour>
      <point x="317" y="673" type="curve"/>
      <point x="147" y="673"/>
      <point x="35" y="530"/>
      <point x="35" y="303" type="curve"/>
      <point x="35" y="130"/>
      <point x="106" y="-20"/>
      <point x="257" y="-20" type="curve" smooth="yes"/>
      <point x="451" y="-20"/>
      <point x="529" y="181"/>
      <point x="529" y="394" type="curve"/>
      <point x="529" y="564"/>
      <point x="453" y="673"/>
    </contour>
    <contour>
      <point x="293" y="586" type="curve" smooth="yes"/>
      <point x="364" y="586"/>
      <point x="397" y="510"/>
      <point x="397" y="347" type="curve" smooth="yes"/>
      <point x="397" y="196"/>
      <point x="358" y="67"/>
      <point x="282" y="67" type="curve" smooth="yes"/>
      <point x="206" y="67"/>
      <point x="165" y="186"/>
      <point x="165" y="321" type="curve" smooth="yes"/>
      <point x="165" y="485"/>
      <point x="218" y="586"/>
    </contour>
  </outline>
</glyph>
<glyph name="two" format="1">
  <advance width="459"/>
  <unicode hex="0032"/>
  <outline>
    <contour>
      <point x="433" y="463" type="curve" smooth="yes"/>
      <point x="433" y="568"/>
      <point x="355" y="641"/>
      <point x="240" y="641" type="curve" smooth="yes"/>
      <point x="134" y="641"/>
      <point x="53" y="581"/>
      <point x="20" y="441" type="curve"/>
      <point x="55" y="424"/>
      <point x="94" y="417"/>
      <point x="138" y="417" type="curve"/>
      <point x="157" y="519"/>
      <point x="189" y="564"/>
      <point x="234" y="564" type="curve" smooth="yes"/>
      <point x="278" y="564"/>
      <point x="302" y="527"/>
      <point x="302" y="472" type="curve" smooth="yes"/>
      <point x="302" y="363"/>
      <point x="217" y="243"/>
      <point x="8" y="94" type="curve"/>
      <point x="0" y="70"/>
      <point x="-2" y="45"/>
      <point x="-2" y="18" type="curve"/>
      <point x="98" y="-11"/>
      <point x="252" y="-32"/>
      <point x="401" y="-39" type="curve"/>
      <point x="414" y="-7"/>
      <point x="422" y="30"/>
      <point x="423" y="70" type="curve"/>
      <point x="311" y="67"/>
      <point x="230" y="73"/>
      <point x="115" y="83" type="curve"/>
      <point x="105" y="55" type="line"/>
      <point x="341" y="214"/>
      <point x="433" y="334"/>
    </contour>
  </outline>
</glyph>
<glyph name="four" format="1">
  <advance width="565"/>
  <unicode hex="0034"/>
  <outline>
    <contour>
      <point x="535" y="115" type="curve"/>
      <point x="549" y="140"/>
      <point x="558" y="179"/>
      <point x="559" y="210" type="curve"/>
      <point x="425" y="217"/>
      <point x="287" y="232"/>
      <point x="134" y="265" type="curve"/>
      <point x="138" y="228" type="line"/>
      <point x="247" y="394"/>
      <point x="321" y="554"/>
      <point x="383" y="725" type="curve"/>
      <point x="353" y="737"/>
      <point x="307" y="755"/>
      <point x="258" y="756" type="curve"/>
      <point x="192" y="541"/>
      <point x="132" y="411"/>
      <point x="11" y="229" type="curve"/>
      <point x="17" y="205"/>
      <point x="21" y="186"/>
      <point x="30" y="167" type="curve"/>
      <point x="170" y="145"/>
      <point x="406" y="120"/>
    </contour>
    <contour>
      <point x="396" y="-35" type="curve"/>
      <point x="403" y="133"/>
      <point x="426" y="316"/>
      <point x="456" y="410" type="curve"/>
      <point x="438" y="415"/>
      <point x="415" y="418"/>
      <point x="396" y="417" type="curve" smooth="yes"/>
      <point x="358" y="417"/>
      <point x="335" y="410"/>
      <point x="318" y="401" type="curve"/>
      <point x="299" y="313"/>
      <point x="288" y="179"/>
      <point x="288" y="59" type="curve" smooth="yes"/>
      <point x="288" y="26"/>
      <point x="289" y="-7"/>
      <point x="291" y="-38" type="curve"/>
      <point x="302" y="-41"/>
      <point x="312" y="-43"/>
      <point x="330" y="-44" type="curve" smooth="yes"/>
      <point x="358" y="-44"/>
      <point x="379" y="-41"/>
    </contour>
  </outline>
</glyph>
<glyph name="five" format="1">
  <advance width="488"/>
  <unicode hex="0035"/>
  <outline>
    <contour>
      <point x="223" y="-37" type="curve" smooth="yes"/>
      <point x="353" y="-37"/>
      <point x="438" y="66"/>
      <point x="438" y="202" type="curve" smooth="yes"/>
      <point x="438" y="330"/>
      <point x="361" y="411"/>
      <point x="247" y="411" type="curve" smooth="yes"/>
      <point x="225" y="411"/>
      <point x="197" y="408"/>
      <point x="176" y="401" type="curve"/>
      <point x="174" y="449"/>
      <point x="179" y="509"/>
      <point x="190" y="585" type="curve"/>
      <point x="159" y="558" type="line"/>
      <point x="268" y="538"/>
      <point x="342" y="529"/>
      <point x="445" y="522" type="curve"/>
      <point x="458" y="554"/>
      <point x="466" y="593"/>
      <point x="467" y="633" type="curve"/>
      <point x="331" y="635"/>
      <point x="232" y="644"/>
      <point x="84" y="676" type="curve"/>
      <point x="71" y="598"/>
      <point x="61" y="509"/>
      <point x="61" y="424" type="curve" smooth="yes"/>
      <point x="61" y="399"/>
      <point x="62" y="377"/>
      <point x="64" y="353" type="curve"/>
      <point x="73" y="338"/>
      <point x="96" y="317"/>
      <point x="111" y="307" type="curve"/>
      <point x="135" y="317"/>
      <point x="158" y="322"/>
      <point x="180" y="322" type="curve" smooth="yes"/>
      <point x="268" y="322"/>
      <point x="307" y="251"/>
      <point x="307" y="170" type="curve" smooth="yes"/>
      <point x="307" y="82"/>
      <point x="276" y="40"/>
      <point x="221" y="40" type="curve" smooth="yes"/>
      <point x="171" y="40"/>
      <point x="129" y="79"/>
      <point x="129" y="186" type="curve"/>
      <point x="94" y="193"/>
      <point x="50" y="201"/>
      <point x="5" y="201" type="curve"/>
      <point x="14" y="45"/>
      <point x="99" y="-37"/>
    </contour>
  </outline>
</glyph>
<glyph name="six" format="1">
  <advance width="532"/>
  <unicode hex="0036"/>
  <outline>
    <contour>
      <point x="308" y="602" type="curve" smooth="yes"/>
      <point x="227" y="602"/>
      <point x="166" y="494"/>
      <point x="166" y="302" type="curve" smooth="yes"/>
      <point x="166" y="145"/>
      <point x="210" y="37"/>
      <point x="283" y="37" type="curve" smooth="yes"/>
      <point x="342" y="37"/>
      <point x="374" y="103"/>
      <point x="374" y="164" type="curve" smooth="yes"/>
      <point x="374" y="250"/>
      <point x="334" y="302"/>
      <point x="277" y="302" type="curve" smooth="yes"/>
      <point x="229" y="302"/>
      <point x="187" y="254"/>
      <point x="168" y="177" type="curve"/>
      <point x="136" y="254" type="line"/>
      <point x="172" y="332"/>
      <point x="234" y="388"/>
      <point x="322" y="388" type="curve" smooth="yes"/>
      <point x="431" y="388"/>
      <point x="506" y="310"/>
      <point x="506" y="200" type="curve" smooth="yes"/>
      <point x="506" y="89"/>
      <point x="437" y="-50"/>
      <point x="269" y="-50" type="curve" smooth="yes"/>
      <point x="107" y="-50"/>
      <point x="36" y="100"/>
      <point x="36" y="293" type="curve" smooth="yes"/>
      <point x="36" y="533"/>
      <point x="144" y="691"/>
      <point x="315" y="691" type="curve" smooth="yes"/>
      <point x="423" y="691"/>
      <point x="486" y="628"/>
      <point x="504" y="516" type="curve"/>
      <point x="471" y="496"/>
      <point x="439" y="485"/>
      <point x="392" y="480" type="curve"/>
      <point x="383" y="562"/>
      <point x="358" y="602"/>
    </contour>
  </outline>
</glyph>
<glyph name="eight" format="1">
  <advance width="531"/>
  <unicode hex="0038"/>
  <outline>
    <contour>
      <point x="491" y="229" type="curve" smooth="yes"/>
      <point x="491" y="325"/>
      <point x="408" y="388"/>
      <point x="293" y="388" type="curve" smooth="yes"/>
      <point x="135" y="388"/>
      <point x="36" y="287"/>
      <point x="36" y="170" type="curve" smooth="yes"/>
      <point x="36" y="75"/>
      <point x="103" y="-6"/>
      <point x="234" y="-6" type="curve" smooth="yes"/>
      <point x="413" y="-6"/>
      <point x="491" y="118"/>
    </contour>
    <contour>
      <point x="359" y="213" type="curve" smooth="yes"/>
      <point x="359" y="138"/>
      <point x="323" y="67"/>
      <point x="257" y="67" type="curve" smooth="yes"/>
      <point x="202" y="67"/>
      <point x="166" y="118"/>
      <point x="166" y="188" type="curve" smooth="yes"/>
      <point x="166" y="273"/>
      <point x="215" y="325"/>
      <point x="270" y="325" type="curve" smooth="yes"/>
      <point x="326" y="325"/>
      <point x="359" y="282"/>
    </contour>
    <contour>
      <point x="352" y="532" type="curve" smooth="yes"/>
      <point x="352" y="463"/>
      <point x="322" y="402"/>
      <point x="261" y="402" type="curve" smooth="yes"/>
      <point x="198" y="402"/>
      <point x="171" y="460"/>
      <point x="171" y="519" type="curve" smooth="yes"/>
      <point x="171" y="590"/>
      <point x="208" y="649"/>
      <point x="267" y="649" type="curve" smooth="yes"/>
      <point x="316" y="649"/>
      <point x="352" y="611"/>
    </contour>
    <contour>
      <point x="483" y="564" type="curve" smooth="yes"/>
      <point x="483" y="662"/>
      <point x="404" y="723"/>
      <point x="288" y="723" type="curve" smooth="yes"/>
      <point x="139" y="723"/>
      <point x="41" y="638"/>
      <point x="41" y="513" type="curve" smooth="yes"/>
      <point x="41" y="419"/>
      <point x="108" y="338"/>
      <point x="229" y="338" type="curve" smooth="yes"/>
      <point x="409" y="338"/>
      <point x="483" y="451"/>
    </contour>
  </outline>
</glyph>
<glyph name="nine" format="1">
  <advance width="541"/>
  <unicode hex="0039"/>
  <outline>
    <contour>
      <point x="218" y="65" type="curve"/>
      <point x="312" y="65"/>
      <point x="380" y="189"/>
      <point x="380" y="388" type="curve" smooth="yes"/>
      <point x="380" y="553"/>
      <point x="336" y="624"/>
      <point x="272" y="624" type="curve" smooth="yes"/>
      <point x="212" y="624"/>
      <point x="172" y="560"/>
      <point x="172" y="477" type="curve" smooth="yes"/>
      <point x="172" y="388"/>
      <point x="214" y="341"/>
      <point x="272" y="341" type="curve" smooth="yes"/>
      <point x="324" y="341"/>
      <point x="366" y="385"/>
      <point x="381" y="476" type="curve"/>
      <point x="416" y="387" type="line"/>
      <point x="375" y="295"/>
      <point x="311" y="254"/>
      <point x="236" y="254" type="curve" smooth="yes"/>
      <point x="120" y="254"/>
      <point x="40" y="338"/>
      <point x="40" y="458" type="curve" smooth="yes"/>
      <point x="40" y="595"/>
      <point x="127" y="711"/>
      <point x="274" y="711" type="curve" smooth="yes"/>
      <point x="423" y="711"/>
      <point x="510" y="586"/>
      <point x="510" y="396" type="curve" smooth="yes"/>
      <point x="510" y="152"/>
      <point x="383" y="-30"/>
      <point x="203" y="-30" type="curve" smooth="yes"/>
      <point x="123" y="-30"/>
      <point x="69" y="2"/>
      <point x="31" y="44" type="curve"/>
      <point x="48" y="80"/>
      <point x="68" y="110"/>
      <point x="98" y="136" type="curve"/>
      <point x="121" y="93"/>
      <point x="166" y="65"/>
    </contour>
  </outline>
</glyph>
<glyph name="colon" format="1">
  <advance width="215"/>
  <unicode hex="003A"/>
  <outline>
    <contour>
      <point x="185" y="35"/>
      <point x="184" y="72"/>
      <point x="184" y="116" type="curve"/>
      <point x="130" y="118"/>
      <point x="84" y="114"/>
      <point x="49" y="110" type="curve"/>
      <point x="49" y="69"/>
      <point x="50" y="44"/>
      <point x="51" y="-1" type="curve"/>
      <point x="80" y="-7"/>
      <point x="136" y="-9"/>
      <point x="182" y="-8" type="curve"/>
    </contour>
    <contour>
      <point x="179" y="452"/>
      <point x="178" y="495"/>
      <point x="176" y="538" type="curve"/>
      <point x="160" y="545"/>
      <point x="136" y="549"/>
      <point x="111" y="549" type="curve" smooth="yes"/>
      <point x="86" y="549"/>
      <point x="63" y="547"/>
      <point x="40" y="542" type="curve"/>
      <point x="43" y="501"/>
      <point x="45" y="470"/>
      <point x="47" y="426" type="curve"/>
      <point x="90" y="423"/>
      <point x="129" y="422"/>
      <point x="177" y="423" type="curve"/>
    </contour>
  </outline>
</glyph>
<glyph name="less" format="1">
  <advance width="420"/>
  <unicode hex="003C"/>
  <outline>
    <contour>
      <point x="76" y="297" type="line"/>
      <point x="168" y="365"/>
      <point x="268" y="421"/>
      <point x="391" y="474" type="curve"/>
      <point x="385" y="502"/>
      <point x="379" y="520"/>
      <point x="366" y="547" type="curve"/>
      <point x="252" y="503"/>
      <point x="119" y="432"/>
      <point x="31" y="366" type="curve"/>
      <point x="30" y="316" type="line"/>
      <point x="113" y="251"/>
      <point x="250" y="178"/>
      <point x="365" y="135" type="curve"/>
      <point x="378" y="159"/>
      <point x="385" y="180"/>
      <point x="390" y="208" type="curve"/>
      <point x="267" y="261"/>
      <point x="161" y="317"/>
      <point x="74" y="385" type="curve"/>
    </contour>
  </outline>
</glyph>
<glyph name="question" format="1">
  <advance width="453"/>
  <unicode hex="003F"/>
  <outline>
    <contour>
      <point x="223" y="364" type="line"/>
      <point x="350" y="387"/>
      <point x="425" y="466"/>
      <point x="425" y="572" type="curve" smooth="yes"/>
      <point x="425" y="685"/>
      <point x="338" y="763"/>
      <point x="225" y="763" type="curve" smooth="yes"/>
      <point x="87" y="763"/>
      <point x="23" y="680"/>
      <point x="15" y="546" type="curve"/>
      <point x="48" y="531"/>
      <point x="87" y="525"/>
      <point x="131" y="525" type="curve"/>
      <point x="131" y="629"/>
      <point x="166" y="689"/>
      <point x="219" y="689" type="curve" smooth="yes"/>
      <point x="269" y="689"/>
      <point x="293" y="639"/>
      <point x="293" y="571" type="curve" smooth="yes"/>
      <point x="293" y="484"/>
      <point x="245" y="419"/>
      <point x="143" y="398" type="curve"/>
    </contour>
    <contour>
      <point x="143" y="398" type="line"/>
      <point x="145" y="341"/>
      <point x="154" y="275"/>
      <point x="162" y="219" type="curve"/>
      <point x="193" y="219"/>
      <point x="230" y="221"/>
      <point x="253" y="227" type="curve"/>
      <point x="254" y="298"/>
      <point x="256" y="361"/>
      <point x="257" y="415" type="curve"/>
    </contour>
    <contour>
      <point x="279" y="-5" type="curve"/>
      <point x="275" y="36"/>
      <point x="273" y="67"/>
      <point x="270" y="110" type="curve"/>
      <point x="230" y="111"/>
      <point x="201" y="112"/>
      <point x="155" y="111" type="curve"/>
      <point x="154" y="76"/>
      <point x="154" y="40"/>
      <point x="157" y="-2" type="curve"/>
      <point x="173" y="-8"/>
      <point x="194" y="-12"/>
      <point x="219" y="-12" type="curve" smooth="yes"/>
      <point x="240" y="-11"/>
      <point x="257" y="-10"/>
    </contour>
  </outline>
</glyph>
<glyph name="at" format="1">
  <advance width="895"/>
  <unicode hex="0040"/>
  <outline>
    <contour>
      <point x="518" y="450" type="curve"/>
      <point x="526" y="511" type="line"/>
      <point x="515" y="518"/>
      <point x="477" y="530"/>
      <point x="447" y="530" type="curve" smooth="yes"/>
      <point x="334" y="530"/>
      <point x="257" y="438"/>
      <point x="257" y="289" type="curve" smooth="yes"/>
      <point x="257" y="177"/>
      <point x="305" y="96"/>
      <point x="388" y="96" type="curve" smooth="yes"/>
      <point x="463" y="96"/>
      <point x="517" y="155"/>
      <point x="533" y="335" type="curve"/>
      <point x="502" y="367" type="line"/>
      <point x="494" y="218"/>
      <point x="457" y="171"/>
      <point x="418" y="171" type="curve" smooth="yes"/>
      <point x="382" y="171"/>
      <point x="358" y="216"/>
      <point x="358" y="303" type="curve" smooth="yes"/>
      <point x="358" y="409"/>
      <point x="401" y="467"/>
      <point x="455" y="467" type="curve" smooth="yes"/>
      <point x="486" y="467"/>
      <point x="502" y="458"/>
    </contour>
    <contour>
      <point x="848" y="360" type="curve" smooth="yes"/>
      <point x="848" y="545"/>
      <point x="740" y="725"/>
      <point x="478" y="725" type="curve" smooth="yes"/>
      <point x="205" y="725"/>
      <point x="35" y="545"/>
      <point x="35" y="284" type="curve" smooth="yes"/>
      <point x="35" y="50"/>
      <point x="182" y="-108"/>
      <point x="419" y="-108" type="curve" smooth="yes"/>
      <point x="510" y="-108"/>
      <point x="587" y="-86"/>
      <point x="656" y="-46" type="curve"/>
      <point x="642" y="-19"/>
      <point x="627" y="1"/>
      <point x="604" y="22" type="curve"/>
      <point x="558" y="-14"/>
      <point x="505" y="-33"/>
      <point x="427" y="-33" type="curve" smooth="yes"/>
      <point x="233" y="-33"/>
      <point x="128" y="100"/>
      <point x="128" y="305" type="curve" smooth="yes"/>
      <point x="128" y="515"/>
      <point x="259" y="653"/>
      <point x="466" y="653" type="curve" smooth="yes"/>
      <point x="662" y="653"/>
      <point x="762" y="530"/>
      <point x="762" y="362" type="curve" smooth="yes"/>
      <point x="762" y="231"/>
      <point x="709" y="147"/>
      <point x="649" y="147" type="curve" smooth="yes"/>
      <point x="604" y="147"/>
      <point x="583" y="193"/>
      <point x="583" y="308" type="curve" smooth="yes"/>
      <point x="583" y="373"/>
      <point x="584" y="438"/>
      <point x="592" y="552" type="curve"/>
      <point x="563" y="558"/>
      <point x="529" y="560"/>
      <point x="483" y="549" type="curve"/>
      <point x="486" y="433"/>
      <point x="490" y="325"/>
      <point x="494" y="251" type="curve" smooth="yes"/>
      <point x="497" y="144"/>
      <point x="549" y="85"/>
      <point x="641" y="85" type="curve" smooth="yes"/>
      <point x="745" y="85"/>
      <point x="848" y="186"/>
    </contour>
  </outline>
</glyph>
<glyph name="A" format="1">
  <advance width="639"/>
  <unicode hex="0041"/>
  <outline>
    <contour>
      <point x="627" y="-70" type="curve"/>
      <point x="580" y="238"/>
      <point x="507" y="468"/>
      <point x="381" y="693" type="curve"/>
      <point x="343" y="702"/>
      <point x="311" y="706"/>
      <point x="262" y="707" type="curve"/>
      <point x="198" y="452"/>
      <point x="138" y="266"/>
      <point x="8" y="31" type="curve"/>
      <point x="31" y="5"/>
      <point x="68" y="-17"/>
      <point x="114" y="-26" type="curve"/>
      <point x="214" y="170"/>
      <point x="281" y="383"/>
      <point x="331" y="603" type="curve"/>
      <point x="298" y="606" type="line"/>
      <point x="398" y="400"/>
      <point x="460" y="188"/>
      <point x="499" y="-110" type="curve"/>
      <point x="551" y="-103"/>
      <point x="592" y="-92"/>
    </contour>
    <contour>
      <point x="485" y="187" type="curve"/>
      <point x="476" y="279" type="line"/>
      <point x="371" y="279"/>
      <point x="263" y="270"/>
      <point x="165" y="251" type="curve"/>
      <point x="169" y="167" type="line"/>
      <point x="264" y="183"/>
      <point x="375" y="189"/>
    </contour>
    <contour>
      <point x="309.0" y="745.0" type="move" name="top"/>
    </contour>
  </outline>
</glyph>
<glyph name="B" format="1">
  <advance width="602"/>
  <unicode hex="0042"/>
  <outline>
    <contour>
      <point x="206" y="4" type="curve"/>
      <point x="201" y="81"/>
      <point x="199" y="149"/>
      <point x="199" y="243" type="curve" smooth="yes"/>
      <point x="199" y="375"/>
      <point x="199" y="526"/>
      <point x="214" y="691" type="curve"/>
      <point x="185" y="699"/>
      <point x="114" y="701"/>
      <point x="76" y="694" type="curve"/>
      <point x="75" y="635"/>
      <point x="75" y="586"/>
      <point x="75" y="538" type="curve" smooth="yes"/>
      <point x="75" y="371"/>
      <point x="80" y="231"/>
      <point x="94" y="26" type="curve"/>
      <point x="123" y="21"/>
      <point x="179" y="4"/>
    </contour>
    <contour>
      <point x="521" y="577" type="curve" smooth="yes"/>
      <point x="521" y="678"/>
      <point x="440" y="741"/>
      <point x="281" y="741" type="curve"/>
      <point x="210" y="741"/>
      <point x="138" y="724"/>
      <point x="76" y="694" type="curve"/>
      <point x="78" y="675"/>
      <point x="98" y="637"/>
      <point x="110" y="617" type="curve"/>
      <point x="148" y="641"/>
      <point x="223" y="662"/>
      <point x="269" y="662" type="curve" smooth="yes"/>
      <point x="354" y="662"/>
      <point x="393" y="622"/>
      <point x="393" y="560" type="curve" smooth="yes"/>
      <point x="393" y="481"/>
      <point x="341" y="427"/>
      <point x="188" y="413" type="curve"/>
      <point x="235" y="364" type="line"/>
      <point x="467" y="395"/>
      <point x="521" y="491"/>
    </contour>
    <contour>
      <point x="571" y="262" type="curve" smooth="yes"/>
      <point x="571" y="356"/>
      <point x="494" y="426"/>
      <point x="337" y="426" type="curve" smooth="yes"/>
      <point x="287" y="426"/>
      <point x="230" y="412"/>
      <point x="177" y="402" type="curve"/>
      <point x="178" y="316" type="line"/>
      <point x="209" y="330"/>
      <point x="265" y="346"/>
      <point x="311" y="346" type="curve" smooth="yes"/>
      <point x="408" y="346"/>
      <point x="440" y="299"/>
      <point x="440" y="235" type="curve" smooth="yes"/>
      <point x="440" y="148"/>
      <point x="366" y="62"/>
      <point x="269" y="62" type="curve" smooth="yes"/>
      <point x="229" y="62"/>
      <point x="193" y="79"/>
      <point x="159" y="105" type="curve"/>
      <point x="94" y="26" type="line"/>
      <point x="139" y="-2"/>
      <point x="198" y="-20"/>
      <point x="256" y="-20" type="curve" smooth="yes"/>
      <point x="433" y="-20"/>
      <point x="571" y="105"/>
    </contour>
  </outline>
</glyph>
<glyph name="C" format="1">
  <advance width="576"/>
  <unicode hex="0043"/>
  <outline>
    <contour>
      <point x="530" y="208" type="curve"/>
      <point x="508" y="222"/>
      <point x="468" y="230"/>
      <point x="429" y="227" type="curve"/>
      <point x="436" y="120"/>
      <point x="394" y="51"/>
      <point x="313" y="51" type="curve" smooth="yes"/>
      <point x="227" y="51"/>
      <point x="181" y="142"/>
      <point x="181" y="303" type="curve" smooth="yes"/>
      <point x="181" y="490"/>
      <point x="252" y="609"/>
      <point x="327" y="609" type="curve" smooth="yes"/>
      <point x="388" y="609"/>
      <point x="418" y="562"/>
      <point x="413" y="444" type="curve"/>
      <point x="470" y="443"/>
      <point x="501" y="451"/>
      <point x="536" y="469" type="curve"/>
      <point x="533" y="615"/>
      <point x="469" y="693"/>
      <point x="349" y="693" type="curve" smooth="yes"/>
      <point x="164" y="693"/>
      <point x="41" y="510"/>
      <point x="41" y="273" type="curve" smooth="yes"/>
      <point x="41" y="64"/>
      <point x="141" y="-35"/>
      <point x="284" y="-35" type="curve" smooth="yes"/>
      <point x="439" y="-35"/>
      <point x="521" y="56"/>
    </contour>
  </outline>
</glyph>
<glyph name="D" format="1">
  <advance width="599"/>
  <unicode hex="0044"/>
  <outline>
    <contour>
      <point x="189" y="-10" type="curve"/>
      <point x="185" y="62"/>
      <point x="183" y="128"/>
      <point x="183" y="213" type="curve" smooth="yes"/>
      <point x="183" y="367"/>
      <point x="185" y="486"/>
      <point x="199" y="662" type="curve"/>
      <point x="169" y="670"/>
      <point x="98" y="674"/>
      <point x="59" y="668" type="curve"/>
      <point x="57" y="617"/>
      <point x="56" y="558"/>
      <point x="56" y="508" type="curve" smooth="yes"/>
      <point x="56" y="346"/>
      <point x="64" y="188"/>
      <point x="79" y="0" type="curve"/>
      <point x="105" y="-5"/>
      <point x="162" y="-10"/>
    </contour>
    <contour>
      <point x="567" y="443" type="curve" smooth="yes"/>
      <point x="567" y="611"/>
      <point x="473" y="717"/>
      <point x="270" y="717" type="curve" smooth="yes"/>
      <point x="192" y="717"/>
      <point x="127" y="701"/>
      <point x="59" y="668" type="curve"/>
      <point x="63" y="645"/>
      <point x="77" y="598"/>
      <point x="93" y="574" type="curve"/>
      <point x="145" y="607"/>
      <point x="198" y="634"/>
      <point x="254" y="634" type="curve" smooth="yes"/>
      <point x="374" y="634"/>
      <point x="434" y="559"/>
      <point x="434" y="443" type="curve" smooth="yes"/>
      <point x="434" y="270"/>
      <point x="339" y="127"/>
      <point x="126" y="64" type="curve"/>
      <point x="189" y="-10" type="line"/>
      <point x="416" y="60"/>
      <point x="567" y="252"/>
    </contour>
  </outline>
</glyph>
<glyph name="G" format="1">
  <advance width="599"/>
  <unicode hex="0047"/>
  <outline>
    <contour>
      <point x="500" y="221" type="curve"/>
      <point x="428" y="256" type="line"/>
      <point x="407" y="144"/>
      <point x="356" y="81"/>
      <point x="288" y="81" type="curve" smooth="yes"/>
      <point x="220" y="81"/>
      <point x="176" y="154"/>
      <point x="176" y="323" type="curve" smooth="yes"/>
      <point x="176" y="514"/>
      <point x="232" y="640"/>
      <point x="306" y="640" type="curve" smooth="yes"/>
      <point x="359" y="640"/>
      <point x="389" y="589"/>
      <point x="397" y="478" type="curve"/>
      <point x="446" y="479"/>
      <point x="488" y="484"/>
      <point x="527" y="497" type="curve"/>
      <point x="523" y="629"/>
      <point x="457" y="724"/>
      <point x="332" y="724" type="curve" smooth="yes"/>
      <point x="155" y="724"/>
      <point x="41" y="528"/>
      <point x="41" y="283" type="curve" smooth="yes"/>
      <point x="41" y="89"/>
      <point x="126" y="-21"/>
      <point x="249" y="-21" type="curve" smooth="yes"/>
      <point x="367" y="-21"/>
      <point x="444" y="58"/>
    </contour>
    <contour>
      <point x="581" y="-18" type="curve"/>
      <point x="546" y="104"/>
      <point x="531" y="222"/>
      <point x="533" y="350" type="curve"/>
      <point x="482" y="350"/>
      <point x="439" y="345"/>
      <point x="401" y="335" type="curve"/>
      <point x="409" y="198"/>
      <point x="436" y="80"/>
      <point x="484" y="-31" type="curve"/>
      <point x="520" y="-29"/>
      <point x="554" y="-25"/>
    </contour>
  </outline>
</glyph>
<glyph name="H" format="1">
  <advance width="638"/>
  <unicode hex="0048"/>
  <outline>
    <contour>
      <point x="200" y="18" type="curve"/>
      <point x="193" y="201"/>
      <point x="193" y="552"/>
      <point x="207" y="706" type="curve"/>
      <point x="184" y="711"/>
      <point x="165" y="714"/>
      <point x="143" y="714" type="curve" smooth="yes"/>
      <point x="107" y="714"/>
      <point x="76" y="705"/>
      <point x="58" y="694" type="curve"/>
      <point x="58" y="482"/>
      <point x="71" y="225"/>
      <point x="86" y="6" type="curve"/>
      <point x="124" y="5"/>
      <point x="175" y="11"/>
    </contour>
    <contour>
      <point x="574" y="-57" type="curve"/>
      <point x="574" y="147"/>
      <point x="566" y="483"/>
      <point x="554" y="723" type="curve"/>
      <point x="538" y="733"/>
      <point x="514" y="742"/>
      <point x="486" y="742" type="curve" smooth="yes"/>
      <point x="464" y="742"/>
      <point x="447" y="738"/>
      <point x="425" y="733" type="curve"/>
      <point x="441" y="559"/>
      <point x="447" y="145"/>
      <point x="447" y="-44" type="curve"/>
      <point x="472" y="-51"/>
      <point x="531" y="-57"/>
    </contour>
    <contour>
      <point x="479" y="319" type="curve"/>
      <point x="468" y="422" type="line"/>
      <point x="358" y="422"/>
      <point x="259" y="412"/>
      <point x="155" y="393" type="curve"/>
      <point x="162" y="299" type="line"/>
      <point x="266" y="315"/>
      <point x="375" y="319"/>
    </contour>
  </outline>
</glyph>
<glyph name="L" format="1">
  <advance width="502"/>
  <unicode hex="004C"/>
  <outline>
    <contour>
      <point x="498" y="-72" type="curve"/>
      <point x="498" y="-42"/>
      <point x="490" y="7"/>
      <point x="484" y="29" type="curve"/>
      <point x="402" y="29"/>
      <point x="308" y="19"/>
      <point x="226" y="2" type="curve"/>
      <point x="207" y="132"/>
      <point x="203" y="257"/>
      <point x="202" y="377" type="curve" smooth="yes"/>
      <point x="202" y="488"/>
      <point x="205" y="591"/>
      <point x="215" y="672" type="curve"/>
      <point x="203" y="674"/>
      <point x="190" y="675"/>
      <point x="178" y="675" type="curve" smooth="yes"/>
      <point x="136" y="675"/>
      <point x="101" y="669"/>
      <point x="67" y="659" type="curve"/>
      <point x="64" y="430"/>
      <point x="87" y="124"/>
      <point x="120" y="-101" type="curve"/>
      <point x="247" y="-83"/>
      <point x="348" y="-73"/>
    </contour>
  </outline>
</glyph>
<glyph name="N" format="1">
  <advance width="663"/>
  <unicode hex="004E"/>
  <outline>
    <contour>
      <point x="207" y="-29" type="curve"/>
      <point x="202" y="66"/>
      <point x="197" y="167"/>
      <point x="196" y="264" type="curve" smooth="yes"/>
      <point x="195" y="420"/>
      <point x="194" y="563"/>
      <point x="201" y="680" type="curve"/>
      <point x="147" y="690"/>
      <point x="86" y="683"/>
      <point x="64" y="668" type="curve"/>
      <point x="64" y="453"/>
      <point x="79" y="219"/>
      <point x="102" y="-42" type="curve"/>
      <point x="139" y="-42"/>
      <point x="184" y="-36"/>
    </contour>
    <contour>
      <point x="575" y="28" type="curve"/>
      <point x="590" y="203"/>
      <point x="596" y="366"/>
      <point x="596" y="549" type="curve" smooth="yes"/>
      <point x="596" y="622"/>
      <point x="593" y="691"/>
      <point x="590" y="759" type="curve"/>
      <point x="539" y="758"/>
      <point x="496" y="749"/>
      <point x="456" y="737" type="curve"/>
      <point x="470" y="645"/>
      <point x="474" y="495"/>
      <point x="474" y="352" type="curve" smooth="yes"/>
      <point x="474" y="226"/>
      <point x="472" y="104"/>
      <point x="462" y="15" type="curve"/>
      <point x="504" y="17"/>
      <point x="540" y="22"/>
    </contour>
    <contour>
      <point x="531" y="75" type="line"/>
      <point x="425" y="377"/>
      <point x="319" y="554"/>
      <point x="205" y="708" type="curve"/>
      <point x="146" y="703"/>
      <point x="102" y="689"/>
      <point x="64" y="668" type="curve"/>
      <point x="239" y="484"/>
      <point x="344" y="294"/>
      <point x="462" y="15" type="curve"/>
    </contour>
  </outline>
</glyph>
<glyph name="Q" format="1">
  <advance width="623"/>
  <unicode hex="0051"/>
  <outline>
    <contour>
      <point x="579" y="369" type="curve" smooth="yes"/>
      <point x="579" y="557"/>
      <point x="501" y="673"/>
      <point x="342" y="673" type="curve" smooth="yes"/>
      <point x="166" y="673"/>
      <point x="37" y="508"/>
      <point x="37" y="275" type="curve" smooth="yes"/>
      <point x="37" y="93"/>
      <point x="119" y="-40"/>
      <point x="270" y="-40" type="curve" smooth="yes"/>
      <point x="487" y="-40"/>
      <point x="579" y="184"/>
    </contour>
    <contour>
      <point x="325" y="584" type="curve" smooth="yes"/>
      <point x="404" y="584"/>
      <point x="445" y="512"/>
      <point x="445" y="336" type="curve" smooth="yes"/>
      <point x="445" y="188"/>
      <point x="396" y="48"/>
      <point x="292" y="48" type="curve" smooth="yes"/>
      <point x="209" y="48"/>
      <point x="169" y="161"/>
      <point x="169" y="294" type="curve" smooth="yes"/>
      <point x="169" y="467"/>
      <point x="230" y="584"/>
    </contour>
    <contour>
      <point x="532" y="-115" type="curve"/>
      <point x="566" y="-93"/>
      <point x="594" y="-67"/>
      <point x="607" y="-35" type="curve"/>
      <point x="517" y="76"/>
      <point x="441" y="140"/>
      <point x="340" y="203" type="curve"/>
      <point x="319" y="191"/>
      <point x="305" y="172"/>
      <point x="296" y="155" type="curve"/>
      <point x="386" y="79"/>
      <point x="453" y="1"/>
    </contour>
  </outline>
</glyph>
<glyph name="R" format="1">
  <advance width="593"/>
  <unicode hex="0052"/>
  <outline>
    <contour>
      <point x="194" y="-6" type="curve"/>
      <point x="207" y="129"/>
      <point x="212" y="263"/>
      <point x="212" y="394" type="curve" smooth="yes"/>
      <point x="212" y="491"/>
      <point x="209" y="581"/>
      <point x="201" y="690" type="curve"/>
      <point x="171" y="697"/>
      <point x="100" y="701"/>
      <point x="62" y="695" type="curve"/>
      <point x="83" y="506"/>
      <point x="90" y="373"/>
      <point x="90" y="183" type="curve" smooth="yes"/>
      <point x="90" y="117"/>
      <point x="88" y="66"/>
      <point x="85" y="1" type="curve"/>
      <point x="115" y="-5"/>
      <point x="162" y="-7"/>
    </contour>
    <contour>
      <point x="193" y="270" type="line"/>
      <point x="410" y="326"/>
      <point x="527" y="427"/>
      <point x="527" y="570" type="curve" smooth="yes"/>
      <point x="527" y="684"/>
      <point x="450" y="770"/>
      <point x="288" y="770" type="curve" smooth="yes"/>
      <point x="213" y="770"/>
      <point x="125" y="744"/>
      <point x="62" y="695" type="curve"/>
      <point x="68" y="671"/>
      <point x="92" y="634"/>
      <point x="101" y="608" type="curve"/>
      <point x="149" y="654"/>
      <point x="208" y="690"/>
      <point x="273" y="690" type="curve" smooth="yes"/>
      <point x="352" y="690"/>
      <point x="395" y="639"/>
      <point x="395" y="554" type="curve" smooth="yes"/>
      <point x="395" y="443"/>
      <point x="325" y="379"/>
      <point x="177" y="350" type="curve"/>
    </contour>
    <contour>
      <point x="584" y="22" type="curve"/>
      <point x="510" y="181"/>
      <point x="438" y="297"/>
      <point x="359" y="379" type="curve"/>
      <point x="269" y="328" type="line"/>
      <point x="352" y="217"/>
      <point x="401" y="116"/>
      <point x="468" y="-39" type="curve"/>
      <point x="515" y="-26"/>
      <point x="559" y="-3"/>
    </contour>
  </outline>
</glyph>
<glyph name="S" format="1">
  <advance width="510"/>
  <unicode hex="0053"/>
  <outline>
    <contour>
      <point x="473" y="169" type="curve" smooth="yes"/>
      <point x="473" y="413"/>
      <point x="202" y="403"/>
      <point x="202" y="588" type="curve" smooth="yes"/>
      <point x="202" y="648"/>
      <point x="231" y="681"/>
      <point x="280" y="681" type="curve" smooth="yes"/>
      <point x="338" y="681"/>
      <point x="369" y="645"/>
      <point x="382" y="546" type="curve"/>
      <point x="428" y="549"/>
      <point x="462" y="555"/>
      <point x="491" y="574" type="curve"/>
      <point x="469" y="688"/>
      <point x="416" y="767"/>
      <point x="283" y="767" type="curve" smooth="yes"/>
      <point x="151" y="767"/>
      <point x="69" y="683"/>
      <point x="69" y="562" type="curve" smooth="yes"/>
      <point x="69" y="318"/>
      <point x="342" y="320"/>
      <point x="342" y="144" type="curve" smooth="yes"/>
      <point x="342" y="85"/>
      <point x="308" y="42"/>
      <point x="246" y="42" type="curve" smooth="yes"/>
      <point x="161" y="42"/>
      <point x="121" y="131"/>
      <point x="122" y="246" type="curve"/>
      <point x="92" y="245"/>
      <point x="47" y="234"/>
      <point x="16" y="218" type="curve"/>
      <point x="16" y="96"/>
      <point x="92" y="-40"/>
      <point x="256" y="-40" type="curve" smooth="yes"/>
      <point x="375" y="-40"/>
      <point x="473" y="43"/>
    </contour>
  </outline>
</glyph>
<glyph name="W" format="1">
  <advance width="820"/>
  <unicode hex="0057"/>
  <outline>
    <contour>
      <point x="588" y="-26" type="curve"/>
      <point x="709" y="208"/>
      <point x="780" y="432"/>
      <point x="820" y="669" type="curve"/>
      <point x="789" y="692"/>
      <point x="750" y="707"/>
      <point x="701" y="710" type="curve"/>
      <point x="679" y="500"/>
      <point x="633" y="311"/>
      <point x="547" y="89" type="curve"/>
      <point x="572" y="87" type="line"/>
      <point x="527" y="266"/>
      <point x="507" y="404"/>
      <point x="493" y="565" type="curve"/>
      <point x="452" y="565"/>
      <point x="399" y="558"/>
      <point x="358" y="549" type="curve"/>
      <point x="336" y="391"/>
      <point x="305" y="256"/>
      <point x="238" y="58" type="curve"/>
      <point x="265" y="58" type="line"/>
      <point x="200" y="292"/>
      <point x="163" y="478"/>
      <point x="148" y="672" type="curve"/>
      <point x="96" y="670"/>
      <point x="51" y="662"/>
      <point x="7" y="648" type="curve"/>
      <point x="41" y="396"/>
      <point x="91" y="201"/>
      <point x="183" y="-71" type="curve"/>
      <point x="218" y="-70"/>
      <point x="255" y="-64"/>
      <point x="285" y="-55" type="curve"/>
      <point x="342" y="83"/>
      <point x="379" y="210"/>
      <point x="409" y="349" type="curve"/>
      <point x="423" y="227"/>
      <point x="455" y="109"/>
      <point x="493" y="-37" type="curve"/>
      <point x="529" y="-35"/>
      <point x="559" y="-31"/>
    </contour>
  </outline>
</glyph>
<glyph name="X" format="1">
  <advance width="645"/>
  <unicode hex="0058"/>
  <outline>
    <contour>
      <point x="595" y="24" type="curve"/>
      <point x="573" y="0"/>
      <point x="535" y="-23"/>
      <point x="502" y="-40" type="curve"/>
      <point x="354" y="288"/>
      <point x="239" y="492"/>
      <point x="46" y="701" type="curve"/>
      <point x="80" y="731"/>
      <point x="125" y="761"/>
      <point x="169" y="778" type="curve"/>
      <point x="358" y="535"/>
      <point x="468" y="339"/>
    </contour>
    <contour>
      <point x="76" y="10" type="curve"/>
      <point x="52" y="25"/>
      <point x="22" y="54"/>
      <point x="8" y="76" type="curve"/>
      <point x="113" y="194"/>
      <point x="200" y="294"/>
      <point x="290" y="416" type="curve"/>
      <point x="306" y="419" type="line"/>
      <point x="382" y="524"/>
      <point x="452" y="627"/>
      <point x="521" y="754" type="curve"/>
      <point x="555" y="738"/>
      <point x="590" y="707"/>
      <point x="612" y="675" type="curve"/>
      <point x="536" y="554"/>
      <point x="452" y="444"/>
      <point x="366" y="337" type="curve"/>
      <point x="358" y="331" type="line"/>
      <point x="266" y="216"/>
      <point x="184" y="120"/>
    </contour>
  </outline>
</glyph>
<glyph name="bracketright" format="1">
  <advance width="373"/>
  <unicode hex="005D"/>
  <outline>
    <contour>
      <point x="13" y="789" type="curve"/>
      <point x="13" y="762"/>
      <point x="19" y="721"/>
      <point x="24" y="701" type="curve"/>
      <point x="71" y="710"/>
      <point x="128" y="715"/>
      <point x="174" y="715" type="curve"/>
      <point x="208" y="474"/>
      <point x="216" y="213"/>
      <point x="190" y="-79" type="curve"/>
      <point x="290" y="-86" type="line"/>
      <point x="307" y="205"/>
      <point x="312" y="596"/>
      <point x="277" y="804" type="curve"/>
      <point x="184" y="805"/>
      <point x="94" y="799"/>
    </contour>
    <contour>
      <point x="35" y="-119" type="curve"/>
      <point x="123" y="-114"/>
      <point x="201" y="-104"/>
      <point x="290" y="-86" type="curve"/>
      <point x="253" y="-15" type="line"/>
      <point x="190" y="-26"/>
      <point x="114" y="-31"/>
      <point x="40" y="-33" type="curve"/>
      <point x="36" y="-57"/>
      <point x="34" y="-88"/>
    </contour>
  </outline>
</glyph>
<glyph name="grave" format="1">
  <advance width="260"/>
  <unicode hex="0060"/>
  <outline>
    <contour>
      <point x="200" y="583" type="curve"/>
      <point x="181" y="640"/>
      <point x="168" y="696"/>
      <point x="164" y="749" type="curve"/>
      <point x="136" y="753"/>
      <point x="89" y="753"/>
      <point x="56" y="741" type="curve"/>
      <point x="63" y="682"/>
      <point x="89" y="627"/>
      <point x="123" y="572" type="curve"/>
      <point x="151" y="573"/>
      <point x="175" y="576"/>
    </contour>
    <contour>
      <point x="158.0" y="560.0" type="move" name="_top"/>
    </contour>
  </outline>
</glyph>
<glyph name="a" format="1">
  <advance width="494"/>
  <unicode hex="0061"/>
  <outline>
    <contour>
      <point x="384" y="-35" type="curve"/>
      <point x="352" y="-35"/>
      <point x="314" y="-30"/>
      <point x="283" y="-22" type="curve"/>
      <point x="312" y="126"/>
      <point x="321" y="196"/>
      <point x="321" y="310" type="curve" smooth="yes"/>
      <point x="321" y="420"/>
      <point x="303" y="473"/>
      <point x="251" y="473" type="curve" smooth="yes"/>
      <point x="204" y="473"/>
      <point x="165" y="421"/>
      <point x="162" y="342" type="curve"/>
      <point x="105" y="345"/>
      <point x="68" y="366"/>
      <point x="52" y="403" type="curve"/>
      <point x="69" y="475"/>
      <point x="150" y="548"/>
      <point x="264" y="548" type="curve" smooth="yes"/>
      <point x="410" y="548"/>
      <point x="445" y="447"/>
      <point x="445" y="348" type="curve" smooth="yes"/>
      <point x="445" y="248"/>
      <point x="412" y="73"/>
    </contour>
    <contour>
      <point x="335" y="222" type="line"/>
      <point x="193" y="230"/>
      <point x="154" y="190"/>
      <point x="154" y="140" type="curve" smooth="yes"/>
      <point x="154" y="98"/>
      <point x="182" y="73"/>
      <point x="225" y="73" type="curve" smooth="yes"/>
      <point x="265" y="73"/>
      <point x="298" y="88"/>
      <point x="327" y="116" type="curve"/>
      <point x="320" y="52" type="line"/>
      <point x="292" y="25"/>
      <point x="247" y="5"/>
      <point x="191" y="5" type="curve" smooth="yes"/>
      <point x="92" y="5"/>
      <point x="26" y="60"/>
      <point x="26" y="147" type="curve" smooth="yes"/>
      <point x="26" y="231"/>
      <point x="92" y="283"/>
      <point x="249" y="283" type="curve" smooth="yes"/>
      <point x="294" y="283"/>
      <point x="314" y="282"/>
      <point x="335" y="280" type="curve"/>
    </contour>
  </outline>
</glyph>
<glyph name="e" format="1">
  <advance width="480"/>
  <unicode hex="0065"/>
  <outline>
    <contour>
      <point x="119" y="271" type="line"/>
      <point x="167" y="252"/>
      <point x="218" y="243"/>
      <point x="264" y="243" type="curve" smooth="yes"/>
      <point x="322" y="243"/>
      <point x="373" y="248"/>
      <point x="410" y="264" type="curve"/>
      <point x="423" y="298"/>
      <point x="434" y="350"/>
      <point x="434" y="399" type="curve" smooth="yes"/>
      <point x="434" y="484"/>
      <point x="380" y="545"/>
      <point x="283" y="545" type="curve" smooth="yes"/>
      <point x="141" y="545"/>
      <point x="30" y="377"/>
      <point x="30" y="214" type="curve" smooth="yes"/>
      <point x="30" y="88"/>
      <point x="91" y="-15"/>
      <point x="223" y="-15" type="curve" smooth="yes"/>
      <point x="348" y="-15"/>
      <point x="428" y="76"/>
      <point x="445" y="129" type="curve"/>
      <point x="422" y="153"/>
      <point x="384" y="173"/>
      <point x="351" y="179" type="curve"/>
      <point x="335" y="124"/>
      <point x="286" y="62"/>
      <point x="241" y="62" type="curve" smooth="yes"/>
      <point x="184" y="62"/>
      <point x="157" y="131"/>
      <point x="157" y="217" type="curve" smooth="yes"/>
      <point x="157" y="332"/>
      <point x="206" y="472"/>
      <point x="274" y="472" type="curve" smooth="yes"/>
      <point x="309" y="472"/>
      <point x="319" y="446"/>
      <point x="319" y="407" type="curve" smooth="yes"/>
      <point x="319" y="376"/>
      <point x="312" y="342"/>
      <point x="305" y="315" type="curve"/>
      <point x="298" y="313"/>
      <point x="278" y="312"/>
      <point x="266" y="312" type="curve" smooth="yes"/>
      <point x="232" y="312"/>
      <point x="175" y="318"/>
      <point x="123" y="346" type="curve"/>
    </contour>
  </outline>
</glyph>
<glyph name="l" format="1">
  <advance width="249"/>
  <unicode hex="006C"/>
  <outline>
    <contour>
      <point x="47" y="461"/>
      <point x="57" y="188"/>
      <point x="76" y="-61" type="curve"/>
      <point x="111" y="-61"/>
      <point x="165" y="-55"/>
      <point x="187" y="-48" type="curve"/>
      <point x="178" y="184"/>
      <point x="180" y="534"/>
      <point x="200" y="734" type="curve"/>
      <point x="178" y="740"/>
      <point x="158" y="742"/>
      <point x="137" y="742" type="curve" smooth="yes"/>
      <point x="103" y="742"/>
      <point x="73" y="732"/>
      <point x="56" y="721" type="curve"/>
    </contour>
  </outline>
</glyph>
<glyph name="m" format="1">
  <advance width="775"/>
  <unicode hex="006D"/>
  <outline>
    <contour>
      <point x="420" y="56"/>
      <point x="448" y="205"/>
      <point x="448" y="330" type="curve" smooth="yes"/>
      <point x="448" y="470"/>
      <point x="401" y="517"/>
      <point x="331" y="517" type="curve" smooth="yes"/>
      <point x="257" y="517"/>
      <point x="194" y="468"/>
      <point x="151" y="365" type="curve"/>
      <point x="169" y="291" type="line"/>
      <point x="194" y="374"/>
      <point x="238" y="416"/>
      <point x="275" y="416" type="curve" smooth="yes"/>
      <point x="312" y="416"/>
      <point x="325" y="387"/>
      <point x="325" y="324" type="curve" smooth="yes"/>
      <point x="325" y="232"/>
      <point x="307" y="120"/>
      <point x="290" y="26" type="curve"/>
      <point x="328" y="18"/>
      <point x="371" y="11"/>
      <point x="408" y="11" type="curve"/>
    </contour>
    <contour>
      <point x="41" y="367"/>
      <point x="59" y="109"/>
      <point x="71" y="-16" type="curve"/>
      <point x="106" y="-16"/>
      <point x="152" y="-10"/>
      <point x="177" y="-2" type="curve"/>
      <point x="174" y="35"/>
      <point x="173" y="105"/>
      <point x="173" y="139" type="curve" smooth="yes"/>
      <point x="173" y="265"/>
      <point x="178" y="453"/>
      <point x="189" y="543" type="curve"/>
      <point x="169" y="547"/>
      <point x="151" y="548"/>
      <point x="134" y="548" type="curve" smooth="yes"/>
      <point x="99" y="548"/>
      <point x="62" y="542"/>
      <point x="41" y="531" type="curve"/>
    </contour>
    <contour>
      <point x="677" y="28"/>
      <point x="719" y="220"/>
      <point x="719" y="381" type="curve" smooth="yes"/>
      <point x="719" y="525"/>
      <point x="671" y="574"/>
      <point x="598" y="574" type="curve" smooth="yes"/>
      <point x="520" y="574"/>
      <point x="455" y="521"/>
      <point x="408" y="410" type="curve"/>
      <point x="437" y="332" type="line"/>
      <point x="465" y="424"/>
      <point x="506" y="473"/>
      <point x="543" y="473" type="curve" smooth="yes"/>
      <point x="579" y="473"/>
      <point x="593" y="443"/>
      <point x="593" y="380" type="curve" smooth="yes"/>
      <point x="593" y="259"/>
      <point x="565" y="111"/>
      <point x="535" y="-15" type="curve"/>
      <point x="576" y="-26"/>
      <point x="621" y="-30"/>
      <point x="661" y="-31" type="curve"/>
    </contour>
  </outline>
</glyph>
<glyph name="n" format="1">
  <advance width="517"/>
  <unicode hex="006E"/>
  <outline>
    <contour>
      <point x="435" y="57"/>
      <point x="462" y="211"/>
      <point x="462" y="340" type="curve" smooth="yes"/>
      <point x="462" y="484"/>
      <point x="411" y="533"/>
      <point x="333" y="533" type="curve" smooth="yes"/>
      <point x="259" y="533"/>
      <point x="198" y="478"/>
      <point x="151" y="365" type="curve"/>
      <point x="169" y="291" type="line"/>
      <point x="197" y="383"/>
      <point x="243" y="432"/>
      <point x="283" y="432" type="curve" smooth="yes"/>
      <point x="321" y="432"/>
      <point x="335" y="402"/>
      <point x="335" y="339" type="curve" smooth="yes"/>
      <point x="335" y="243"/>
      <point x="318" y="125"/>
      <point x="300" y="26" type="curve"/>
      <point x="340" y="18"/>
      <point x="384" y="11"/>
      <point x="422" y="11" type="curve"/>
    </contour>
    <contour>
      <point x="46" y="354"/>
      <point x="60" y="90"/>
      <point x="72" y="-38" type="curve"/>
      <point x="108" y="-38"/>
      <point x="153" y="-32"/>
      <point x="179" y="-24" type="curve"/>
      <point x="175" y="21"/>
      <point x="173" y="98"/>
      <point x="173" y="139" type="curve" smooth="yes"/>
      <point x="173" y="262"/>
      <point x="184" y="445"/>
      <point x="194" y="533" type="curve"/>
      <point x="174" y="537"/>
      <point x="156" y="539"/>
      <point x="140" y="539" type="curve" smooth="yes"/>
      <point x="104" y="539"/>
      <point x="67" y="532"/>
      <point x="46" y="522" type="curve"/>
    </contour>
  </outline>
</glyph>
<glyph name="o" format="1">
  <advance width="492"/>
  <unicode hex="006F"/>
  <outline>
    <contour>
      <point x="274" y="543" type="curve" smooth="yes"/>
      <point x="128" y="543"/>
      <point x="28" y="417"/>
      <point x="28" y="238" type="curve" smooth="yes"/>
      <point x="28" y="107"/>
      <point x="85" y="-10"/>
      <point x="214" y="-10" type="curve" smooth="yes"/>
      <point x="386" y="-10"/>
      <point x="457" y="171"/>
      <point x="457" y="329" type="curve" smooth="yes"/>
      <point x="457" y="462"/>
      <point x="389" y="543"/>
    </contour>
    <contour>
      <point x="246" y="463" type="curve" smooth="yes"/>
      <point x="298" y="463"/>
      <point x="328" y="412"/>
      <point x="328" y="282" type="curve" smooth="yes"/>
      <point x="328" y="172"/>
      <point x="291" y="70"/>
      <point x="240" y="70" type="curve" smooth="yes"/>
      <point x="177" y="70"/>
      <point x="153" y="174"/>
      <point x="153" y="256" type="curve" smooth="yes"/>
      <point x="153" y="378"/>
      <point x="197" y="463"/>
    </contour>
  </outline>
</glyph>
<glyph name="p" format="1">
  <advance width="501"/>
  <unicode hex="0070"/>
  <outline>
    <contour>
      <point x="150" y="134" type="curve"/>
      <point x="83" y="55" type="line"/>
      <point x="114" y="33"/>
      <point x="154" y="10"/>
      <point x="225" y="10" type="curve" smooth="yes"/>
      <point x="357" y="10"/>
      <point x="470" y="150"/>
      <point x="470" y="367" type="curve" smooth="yes"/>
      <point x="470" y="487"/>
      <point x="418" y="563"/>
      <point x="334" y="563" type="curve" smooth="yes"/>
      <point x="235" y="563"/>
      <point x="169" y="467"/>
      <point x="139" y="339" type="curve"/>
      <point x="173" y="313" type="line"/>
      <point x="195" y="425"/>
      <point x="237" y="464"/>
      <point x="280" y="464" type="curve" smooth="yes"/>
      <point x="318" y="464"/>
      <point x="341" y="426"/>
      <point x="341" y="355" type="curve" smooth="yes"/>
      <point x="341" y="190"/>
      <point x="283" y="85"/>
      <point x="224" y="85" type="curve" smooth="yes"/>
      <point x="193" y="85"/>
      <point x="169" y="105"/>
    </contour>
    <contour>
      <point x="97" y="-225" type="curve"/>
      <point x="133" y="-225"/>
      <point x="178" y="-219"/>
      <point x="205" y="-211" type="curve"/>
      <point x="190" y="-102"/>
      <point x="176" y="19"/>
      <point x="176" y="194" type="curve"/>
      <point x="176" y="332"/>
      <point x="184" y="474"/>
      <point x="208" y="562" type="curve"/>
      <point x="191" y="566"/>
      <point x="181" y="568"/>
      <point x="164" y="568" type="curve" smooth="yes"/>
      <point x="128" y="568"/>
      <point x="91" y="561"/>
      <point x="68" y="549" type="curve"/>
      <point x="62" y="491"/>
      <point x="59" y="433"/>
      <point x="59" y="350" type="curve" smooth="yes"/>
      <point x="59" y="143"/>
      <point x="80" y="-96"/>
    </contour>
  </outline>
</glyph>
<glyph name="q" format="1">
  <advance width="535"/>
  <unicode hex="0071"/>
  <outline>
    <contour>
      <point x="347" y="430" type="curve"/>
      <point x="363" y="504" type="line"/>
      <point x="350" y="511"/>
      <point x="311" y="519"/>
      <point x="287" y="519" type="curve" smooth="yes"/>
      <point x="131" y="519"/>
      <point x="35" y="391"/>
      <point x="35" y="196" type="curve" smooth="yes"/>
      <point x="35" y="62"/>
      <point x="89" y="-50"/>
      <point x="202" y="-50" type="curve" smooth="yes"/>
      <point x="273" y="-50"/>
      <point x="328" y="19"/>
      <point x="364" y="165" type="curve"/>
      <point x="327" y="194" type="line"/>
      <point x="305" y="75"/>
      <point x="274" y="42"/>
      <point x="234" y="42" type="curve" smooth="yes"/>
      <point x="192" y="42"/>
      <point x="160" y="99"/>
      <point x="160" y="213" type="curve" smooth="yes"/>
      <point x="160" y="377"/>
      <point x="223" y="442"/>
      <point x="288" y="442" type="curve" smooth="yes"/>
      <point x="317" y="442"/>
      <point x="334" y="436"/>
    </contour>
    <contour>
      <point x="398" y="571"/>
      <point x="375" y="564"/>
      <point x="356" y="554" type="curve"/>
      <point x="332" y="451"/>
      <point x="311" y="231"/>
      <point x="311" y="89" type="curve" smooth="yes"/>
      <point x="311" y="-2"/>
      <point x="315" y="-210"/>
      <point x="318" y="-236" type="curve"/>
      <point x="330" y="-240"/>
      <point x="339" y="-241"/>
      <point x="357" y="-241" type="curve" smooth="yes"/>
      <point x="385" y="-241"/>
      <point x="410" y="-236"/>
      <point x="425" y="-229" type="curve"/>
      <point x="418" y="75"/>
      <point x="456" y="426"/>
      <point x="499" y="563" type="curve"/>
      <point x="480" y="568"/>
      <point x="457" y="571"/>
      <point x="439" y="571" type="curve" smooth="yes"/>
    </contour>
  </outline>
</glyph>
<glyph name="s" format="1">
  <advance width="425"/>
  <unicode hex="0073"/>
  <outline>
    <contour>
      <point x="388" y="129" type="curve" smooth="yes"/>
      <point x="388" y="294"/>
      <point x="161" y="311"/>
      <point x="161" y="424" type="curve" smooth="yes"/>
      <point x="161" y="460"/>
      <point x="181" y="483"/>
      <point x="214" y="483" type="curve" smooth="yes"/>
      <point x="257" y="483"/>
      <point x="279" y="450"/>
      <point x="289" y="379" type="curve"/>
      <point x="332" y="383"/>
      <point x="364" y="390"/>
      <point x="393" y="407" type="curve"/>
      <point x="376" y="500"/>
      <point x="323" y="562"/>
      <point x="212" y="562" type="curve" smooth="yes"/>
      <point x="105" y="562"/>
      <point x="39" y="495"/>
      <point x="39" y="404" type="curve" smooth="yes"/>
      <point x="39" y="234"/>
      <point x="264" y="221"/>
      <point x="264" y="102" type="curve" smooth="yes"/>
      <point x="264" y="57"/>
      <point x="238" y="31"/>
      <point x="197" y="31" type="curve" smooth="yes"/>
      <point x="136" y="31"/>
      <point x="109" y="87"/>
      <point x="110" y="155" type="curve"/>
      <point x="84" y="156"/>
      <point x="45" y="150"/>
      <point x="20" y="139" type="curve"/>
      <point x="20" y="37"/>
      <point x="92" y="-42"/>
      <point x="197" y="-42" type="curve" smooth="yes"/>
      <point x="302" y="-42"/>
      <point x="388" y="28"/>
    </contour>
  </outline>
</glyph>
<glyph name="t" format="1">
  <advance width="408"/>
  <unicode hex="0074"/>
  <outline>
    <contour>
      <point x="236" y="8" type="curve" smooth="yes"/>
      <point x="342" y="8"/>
      <point x="374" y="106"/>
      <point x="376" y="184" type="curve"/>
      <point x="352" y="202"/>
      <point x="318" y="214"/>
      <point x="287" y="217" type="curve"/>
      <point x="285" y="126"/>
      <point x="270" y="87"/>
      <point x="245" y="87" type="curve" smooth="yes"/>
      <point x="211" y="87"/>
      <point x="199" y="161"/>
      <point x="199" y="273" type="curve" smooth="yes"/>
      <point x="199" y="401"/>
      <point x="226" y="554"/>
      <point x="253" y="641" type="curve"/>
      <point x="218" y="653"/>
      <point x="167" y="659"/>
      <point x="120" y="660" type="curve"/>
      <point x="89" y="542"/>
      <point x="74" y="419"/>
      <point x="74" y="290" type="curve" smooth="yes"/>
      <point x="74" y="94"/>
      <point x="141" y="8"/>
    </contour>
    <contour>
      <point x="27" y="543" type="curve"/>
      <point x="16" y="524"/>
      <point x="11" y="494"/>
      <point x="10" y="469" type="curve"/>
      <point x="107" y="444"/>
      <point x="267" y="441"/>
      <point x="362" y="454" type="curve"/>
      <point x="370" y="478"/>
      <point x="375" y="506"/>
      <point x="375" y="527" type="curve"/>
      <point x="260" y="515"/>
      <point x="106" y="522"/>
    </contour>
  </outline>
</glyph>
<glyph name="u" format="1">
  <advance width="467"/>
  <unicode hex="0075"/>
  <outline>
    <contour>
      <point x="59" y="482"/>
      <point x="35" y="370"/>
      <point x="35" y="268" type="curve" smooth="yes"/>
      <point x="35" y="129"/>
      <point x="72" y="-10"/>
      <point x="211" y="-10" type="curve" smooth="yes"/>
      <point x="394" y="-10"/>
      <point x="432" y="195"/>
      <point x="432" y="368" type="curve" smooth="yes"/>
      <point x="432" y="416"/>
      <point x="428" y="464"/>
      <point x="422" y="495" type="curve"/>
      <point x="385" y="495"/>
      <point x="329" y="488"/>
      <point x="292" y="472" type="curve"/>
      <point x="296" y="455"/>
      <point x="304" y="390"/>
      <point x="304" y="321" type="curve" smooth="yes"/>
      <point x="304" y="201"/>
      <point x="287" y="72"/>
      <point x="231" y="72" type="curve" smooth="yes"/>
      <point x="183" y="72"/>
      <point x="164" y="177"/>
      <point x="164" y="283" type="curve" smooth="yes"/>
      <point x="164" y="372"/>
      <point x="174" y="452"/>
      <point x="190" y="516" type="curve"/>
      <point x="180" y="522"/>
      <point x="162" y="526"/>
      <point x="136" y="526" type="curve" smooth="yes"/>
      <point x="113" y="526"/>
      <point x="91" y="522"/>
      <point x="78" y="518" type="curve"/>
    </contour>
  </outline>
</glyph>
<glyph name="v" format="1">
  <advance width="474"/>
  <unicode hex="0076"/>
  <outline>
    <contour>
      <point x="264" y="19" type="curve"/>
      <point x="357" y="192"/>
      <point x="413" y="335"/>
      <point x="458" y="515" type="curve"/>
      <point x="423" y="530"/>
      <point x="383" y="541"/>
      <point x="344" y="544" type="curve"/>
      <point x="327" y="420"/>
      <point x="288" y="274"/>
      <point x="235" y="143" type="curve"/>
      <point x="204" y="317"/>
      <point x="172" y="456"/>
      <point x="130" y="575" type="curve"/>
      <point x="79" y="574"/>
      <point x="31" y="563"/>
      <point x="-7" y="544" type="curve"/>
      <point x="67" y="374"/>
      <point x="121" y="197"/>
      <point x="157" y="8" type="curve"/>
      <point x="196" y="8"/>
      <point x="238" y="9"/>
    </contour>
  </outline>
</glyph>
<glyph name="w" format="1">
  <advance width="724"/>
  <unicode hex="0077"/>
  <outline>
    <contour>
      <point x="423" y="494" type="curve"/>
      <point x="459" y="388"/>
      <point x="490" y="256"/>
      <point x="513" y="93" type="curve"/>
      <point x="497" y="95" type="line"/>
      <point x="558" y="258"/>
      <point x="588" y="393"/>
      <point x="602" y="506" type="curve"/>
      <point x="648" y="502"/>
      <point x="680" y="492"/>
      <point x="711" y="473" type="curve"/>
      <point x="666" y="295"/>
      <point x="617" y="149"/>
      <point x="525" y="-18" type="curve"/>
      <point x="503" y="-26"/>
      <point x="460" y="-34"/>
      <point x="427" y="-36" type="curve"/>
      <point x="404" y="116"/>
      <point x="378" y="239"/>
      <point x="338" y="376" type="curve"/>
      <point x="373" y="377" type="line"/>
      <point x="333" y="242"/>
      <point x="300" y="144"/>
      <point x="243" y="20" type="curve"/>
      <point x="217" y="12"/>
      <point x="170" y="4"/>
      <point x="135" y="3" type="curve"/>
      <point x="70" y="178"/>
      <point x="31" y="338"/>
      <point x="7" y="524" type="curve"/>
      <point x="50" y="539"/>
      <point x="95" y="546"/>
      <point x="144" y="548" type="curve"/>
      <point x="158" y="367"/>
      <point x="179" y="239"/>
      <point x="220" y="97" type="curve"/>
      <point x="196" y="95" type="line"/>
      <point x="252" y="232"/>
      <point x="284" y="347"/>
      <point x="307" y="478" type="curve"/>
      <point x="342" y="487"/>
      <point x="386" y="495"/>
    </contour>
  </outline>
</glyph>
<glyph name="z" format="1">
  <advance width="486"/>
  <unicode hex="007A"/>
  <outline>
    <contour>
      <point x="403" y="-30" type="curve"/>
      <point x="416" y="1"/>
      <point x="424" y="38"/>
      <point x="425" y="78" type="curve"/>
      <point x="311" y="63"/>
      <point x="233" y="65"/>
      <point x="137" y="71" type="curve"/>
      <point x="230" y="196"/>
      <point x="340" y="308"/>
      <point x="438" y="404" type="curve"/>
      <point x="449" y="428"/>
      <point x="455" y="460"/>
      <point x="457" y="486" type="curve"/>
      <point x="331" y="528"/>
      <point x="218" y="544"/>
      <point x="83" y="552" type="curve"/>
      <point x="65" y="516"/>
      <point x="60" y="488"/>
      <point x="58" y="446" type="curve"/>
      <point x="153" y="445"/>
      <point x="240" y="443"/>
      <point x="327" y="433" type="curve"/>
      <point x="221" y="337"/>
      <point x="122" y="230"/>
      <point x="21" y="98" type="curve"/>
      <point x="15" y="77"/>
      <point x="12" y="48"/>
      <point x="12" y="23" type="curve"/>
      <point x="113" y="-11"/>
      <point x="254" y="-29"/>
    </contour>
  </outline>
</glyph>
<glyph name="braceleft" format="1">
  <advance width="320"/>
  <unicode hex="007B"/>
  <outline>
    <contour>
      <point x="292" y="-155" type="curve"/>
      <point x="294" y="-135"/>
      <point x="289" y="-108"/>
      <point x="278" y="-82" type="curve"/>
      <point x="261" y="-89"/>
      <point x="245" y="-92"/>
      <point x="227" y="-92" type="curve" smooth="yes"/>
      <point x="192" y="-93"/>
      <point x="169" y="-66"/>
      <point x="168" y="-20" type="curve" smooth="yes"/>
      <point x="167" y="80"/>
      <point x="256" y="116"/>
      <point x="255" y="220" type="curve" smooth="yes"/>
      <point x="254" y="281"/>
      <point x="205" y="332"/>
      <point x="131" y="334" type="curve"/>
      <point x="129" y="316" type="line"/>
      <point x="202" y="320"/>
      <point x="251" y="373"/>
      <point x="251" y="432" type="curve" smooth="yes"/>
      <point x="249" y="535"/>
      <point x="160" y="581"/>
      <point x="159" y="666" type="curve" smooth="yes"/>
      <point x="159" y="713"/>
      <point x="180" y="740"/>
      <point x="216" y="740" type="curve" smooth="yes"/>
      <point x="233" y="740"/>
      <point x="249" y="737"/>
      <point x="267" y="731" type="curve"/>
      <point x="278" y="758"/>
      <point x="282" y="785"/>
      <point x="279" y="804" type="curve"/>
      <point x="252" y="814"/>
      <point x="229" y="818"/>
      <point x="195" y="818" type="curve" smooth="yes"/>
      <point x="117" y="817"/>
      <point x="57" y="759"/>
      <point x="58" y="675" type="curve" smooth="yes"/>
      <point x="59" y="617"/>
      <point x="78" y="580"/>
      <point x="113" y="531" type="curve" smooth="yes"/>
      <point x="143" y="488"/>
      <point x="159" y="463"/>
      <point x="159" y="432" type="curve" smooth="yes"/>
      <point x="159" y="396"/>
      <point x="137" y="372"/>
      <point x="97" y="372" type="curve" smooth="yes"/>
      <point x="81" y="372"/>
      <point x="65" y="373"/>
      <point x="44" y="377" type="curve"/>
      <point x="38" y="347"/>
      <point x="38" y="303"/>
      <point x="47" y="269" type="curve"/>
      <point x="66" y="274"/>
      <point x="83" y="275"/>
      <point x="101" y="276" type="curve" smooth="yes"/>
      <point x="140" y="276"/>
      <point x="163" y="252"/>
      <point x="164" y="217" type="curve" smooth="yes"/>
      <point x="164" y="187"/>
      <point x="150" y="157"/>
      <point x="119" y="113" type="curve" smooth="yes"/>
      <point x="86" y="64"/>
      <point x="67" y="26"/>
      <point x="68" y="-32" type="curve" smooth="yes"/>
      <point x="69" y="-116"/>
      <point x="131" y="-172"/>
      <point x="208" y="-171" type="curve" smooth="yes"/>
      <point x="243" y="-170"/>
      <point x="265" y="-166"/>
    </contour>
  </outline>
</glyph>
<glyph name="bar" format="1">
  <advance width="270"/>
  <unicode hex="007C"/>
  <outline>
    <contour>
      <point x="79" y="451"/>
      <point x="84" y="94"/>
      <point x="100" y="-169" type="curve"/>
      <point x="123" y="-171"/>
      <point x="158" y="-167"/>
      <point x="179" y="-161" type="curve"/>
      <point x="172" y="36"/>
      <point x="174" y="506"/>
      <point x="189" y="725" type="curve"/>
      <point x="158" y="732"/>
      <point x="114" y="728"/>
      <point x="80" y="713" type="curve"/>
    </contour>
  </outline>
</glyph>
<glyph name="asciitilde" format="1">
  <advance width="414"/>
  <unicode hex="007E"/>
  <outline>
    <contour>
      <point x="276" y="347" type="curve" smooth="yes"/>
      <point x="229" y="347"/>
      <point x="180" y="388"/>
      <point x="124" y="388" type="curve" smooth="yes"/>
      <point x="60" y="388"/>
      <point x="24" y="344"/>
      <point x="30" y="271" type="curve"/>
      <point x="48" y="265"/>
      <point x="70" y="261"/>
      <point x="87" y="262" type="curve"/>
      <point x="86" y="295"/>
      <point x="98" y="311"/>
      <point x="134" y="311" type="curve" smooth="yes"/>
      <point x="176" y="311"/>
      <point x="224" y="270"/>
      <point x="288" y="270" type="curve" smooth="yes"/>
      <point x="353" y="270"/>
      <point x="390" y="314"/>
      <point x="384" y="387" type="curve"/>
      <point x="367" y="394"/>
      <point x="344" y="397"/>
      <point x="325" y="396" type="curve"/>
      <point x="326" y="363"/>
      <point x="312" y="347"/>
    </contour>
  </outline>
</glyph>
<glyph name="sterling" format="1">
  <advance width="489"/>
  <unicode hex="00A3"/>
  <outline>
    <contour>
      <point x="407" y="290" type="curve" smooth="yes"/>
      <point x="407" y="301"/>
      <point x="405" y="313"/>
      <point x="403" y="324" type="curve"/>
      <point x="297" y="305"/>
      <point x="113" y="294"/>
      <point x="20" y="300" type="curve"/>
      <point x="16" y="282"/>
      <point x="17" y="251"/>
      <point x="19" y="225" type="curve"/>
      <point x="114" y="221"/>
      <point x="281" y="224"/>
      <point x="400" y="242" type="curve"/>
      <point x="405" y="256"/>
      <point x="407" y="274"/>
    </contour>
    <contour>
      <point x="250" y="187" type="curve" smooth="yes"/>
      <point x="250" y="294"/>
      <point x="164" y="320"/>
      <point x="164" y="457" type="curve" smooth="yes"/>
      <point x="164" y="541"/>
      <point x="198" y="594"/>
      <point x="256" y="594" type="curve" smooth="yes"/>
      <point x="309" y="594"/>
      <point x="343" y="545"/>
      <point x="337" y="430" type="curve"/>
      <point x="380" y="422"/>
      <point x="424" y="421"/>
      <point x="460" y="432" type="curve"/>
      <point x="455" y="586"/>
      <point x="378" y="673"/>
      <point x="257" y="673" type="curve" smooth="yes"/>
      <point x="123" y="673"/>
      <point x="32" y="581"/>
      <point x="32" y="465" type="curve" smooth="yes"/>
      <point x="32" y="371"/>
      <point x="87" y="305"/>
      <point x="128" y="255" type="curve" smooth="yes"/>
      <point x="152" y="223"/>
      <point x="162" y="196"/>
      <point x="162" y="160" type="curve" smooth="yes"/>
      <point x="162" y="111"/>
      <point x="137" y="73"/>
      <point x="75" y="37" type="curve"/>
      <point x="119" y="10" type="line"/>
      <point x="196" y="58"/>
      <point x="250" y="106"/>
    </contour>
    <contour>
      <point x="39" y="-29" type="curve"/>
      <point x="78" y="-12"/>
      <point x="102" y="-5"/>
      <point x="134" y="-5" type="curve" smooth="yes"/>
      <point x="215" y="-5"/>
      <point x="309" y="-40"/>
      <point x="478" y="-19" type="curve"/>
      <point x="483" y="19"/>
      <point x="477" y="62"/>
      <point x="464" y="96" type="curve"/>
      <point x="396" y="73"/>
      <point x="330" y="62"/>
      <point x="270" y="61" type="curve" smooth="yes"/>
      <point x="207" y="60"/>
      <point x="179" y="73"/>
      <point x="132" y="73" type="curve" smooth="yes"/>
      <point x="100" y="73"/>
      <point x="58" y="61"/>
      <point x="16" y="38" type="curve"/>
      <point x="17" y="16"/>
      <point x="24" y="-5"/>
    </contour>
  </outline>
</glyph>
<glyph name="currency" format="1">
  <advance width="563"/>
  <unicode hex="00A4"/>
  <outline>
    <contour>
      <point x="307" y="595" type="curve" smooth="yes"/>
      <point x="175" y="595"/>
      <point x="80" y="493"/>
      <point x="80" y="332" type="curve" smooth="yes"/>
      <point x="80" y="216"/>
      <point x="138" y="118"/>
      <point x="255" y="118" type="curve" smooth="yes"/>
      <point x="412" y="118"/>
      <point x="479" y="270"/>
      <point x="479" y="409" type="curve" smooth="yes"/>
      <point x="479" y="529"/>
      <point x="409" y="595"/>
    </contour>
    <contour>
      <point x="285" y="523" type="curve" smooth="yes"/>
      <point x="337" y="523"/>
      <point x="365" y="474"/>
      <point x="365" y="371" type="curve" smooth="yes"/>
      <point x="365" y="282"/>
      <point x="331" y="189"/>
      <point x="277" y="189" type="curve" smooth="yes"/>
      <point x="226" y="189"/>
      <point x="192" y="264"/>
      <point x="192" y="349" type="curve" smooth="yes"/>
      <point x="192" y="453"/>
      <point x="231" y="523"/>
    </contour>
    <contour>
      <point x="450" y="479" type="line"/>
      <point x="486" y="530"/>
      <point x="519" y="566"/>
      <point x="563" y="605" type="curve"/>
      <point x="545" y="628"/>
      <point x="518" y="650"/>
      <point x="495" y="659" type="curve"/>
      <point x="459" y="626"/>
      <point x="425" y="581"/>
      <point x="399" y="540" type="curve"/>
    </contour>
    <contour>
      <point x="165" y="174" type="curve"/>
      <point x="111" y="235" type="line"/>
      <point x="76" y="184"/>
      <point x="41" y="147"/>
      <point x="-2" y="109" type="curve"/>
      <point x="15" y="86"/>
      <point x="45" y="65"/>
      <point x="68" y="55" type="curve"/>
      <point x="103" y="89"/>
      <point x="139" y="134"/>
    </contour>
    <contour>
      <point x="481" y="74" type="curve"/>
      <point x="506" y="89"/>
      <point x="531" y="113"/>
      <point x="543" y="135" type="curve"/>
      <point x="513" y="175"/>
      <point x="472" y="215"/>
      <point x="435" y="246" type="curve"/>
      <point x="380" y="192" type="line"/>
      <point x="425" y="151"/>
      <point x="448" y="122"/>
    </contour>
    <contour>
      <point x="204" y="545" type="line"/>
      <point x="158" y="587"/>
      <point x="132" y="620"/>
      <point x="100" y="668" type="curve"/>
      <point x="75" y="653"/>
      <point x="50" y="626"/>
      <point x="38" y="604" type="curve"/>
      <point x="66" y="565"/>
      <point x="107" y="524"/>
      <point x="143" y="494" type="curve"/>
    </contour>
  </outline>
</glyph>
<glyph name="brokenbar" format="1">
  <advance width="272"/>
  <unicode hex="00A6"/>
  <outline>
    <contour>
      <point x="176" y="377" type="curve"/>
      <point x="179" y="512"/>
      <point x="183" y="638"/>
      <point x="189" y="725" type="curve"/>
      <point x="158" y="732"/>
      <point x="114" y="728"/>
      <point x="80" y="713" type="curve"/>
      <point x="77" y="610"/>
      <point x="78" y="492"/>
      <point x="82" y="371" type="curve"/>
      <point x="114" y="370"/>
      <point x="147" y="371"/>
    </contour>
    <contour>
      <point x="100" y="-169" type="curve"/>
      <point x="123" y="-171"/>
      <point x="158" y="-167"/>
      <point x="179" y="-161" type="curve"/>
      <point x="176" y="-72"/>
      <point x="174" y="69"/>
      <point x="175" y="219" type="curve"/>
      <point x="143" y="224"/>
      <point x="111" y="224"/>
      <point x="85" y="221" type="curve"/>
      <point x="88" y="83"/>
      <point x="92" y="-52"/>
    </contour>
  </outline>
</glyph>
<glyph name="copyright" format="1">
  <advance width="800"/>
  <unicode hex="00A9"/>
  <outline>
    <contour>
      <point x="544" y="262" type="curve"/>
      <point x="530" y="272"/>
      <point x="497" y="278"/>
      <point x="468" y="275" type="curve"/>
      <point x="474" y="222"/>
      <point x="454" y="189"/>
      <point x="414" y="189" type="curve" smooth="yes"/>
      <point x="373" y="189"/>
      <point x="352" y="236"/>
      <point x="352" y="317" type="curve" smooth="yes"/>
      <point x="352" y="404"/>
      <point x="381" y="471"/>
      <point x="417" y="471" type="curve"/>
      <point x="442" y="471"/>
      <point x="459" y="449"/>
      <point x="458" y="390" type="curve"/>
      <point x="504" y="390"/>
      <point x="523" y="396"/>
      <point x="551" y="408" type="curve"/>
      <point x="546" y="487"/>
      <point x="503" y="530"/>
      <point x="434" y="530" type="curve"/>
      <point x="319" y="530"/>
      <point x="243" y="422"/>
      <point x="243" y="294" type="curve" smooth="yes"/>
      <point x="243" y="178"/>
      <point x="306" y="127"/>
      <point x="389" y="127" type="curve" smooth="yes"/>
      <point x="487" y="127"/>
      <point x="539" y="180"/>
    </contour>
    <contour>
      <point x="672" y="334" type="curve" smooth="yes"/>
      <point x="672" y="139"/>
      <point x="572" y="22"/>
      <point x="401" y="22" type="curve" smooth="yes"/>
      <point x="232" y="22"/>
      <point x="128" y="134"/>
      <point x="128" y="318" type="curve" smooth="yes"/>
      <point x="128" y="496"/>
      <point x="252" y="628"/>
      <point x="413" y="628" type="curve" smooth="yes"/>
      <point x="580" y="628"/>
      <point x="672" y="511"/>
    </contour>
    <contour>
      <point x="765" y="332" type="curve" smooth="yes"/>
      <point x="765" y="528"/>
      <point x="656" y="703"/>
      <point x="425" y="703" type="curve" smooth="yes"/>
      <point x="197" y="703"/>
      <point x="35" y="537"/>
      <point x="35" y="309" type="curve" smooth="yes"/>
      <point x="35" y="86"/>
      <point x="180" y="-53"/>
      <point x="393" y="-53" type="curve" smooth="yes"/>
      <point x="634" y="-53"/>
      <point x="765" y="102"/>
    </contour>
  </outline>
</glyph>
<glyph name="guillemotleft" format="1">
  <advance width="526"/>
  <unicode hex="00AB"/>
  <outline>
    <contour>
      <point x="194" y="47" type="curve"/>
      <point x="228" y="63"/>
      <point x="249" y="83"/>
      <point x="270" y="117" type="curve"/>
      <point x="183" y="176"/>
      <point x="128" y="233"/>
      <point x="84" y="299" type="curve"/>
      <point x="8" y="265" type="line"/>
      <point x="52" y="179"/>
      <point x="115" y="110"/>
    </contour>
    <contour>
      <point x="270" y="401" type="curve"/>
      <point x="253" y="426"/>
      <point x="222" y="449"/>
      <point x="191" y="466" type="curve"/>
      <point x="137" y="376"/>
      <point x="77" y="315"/>
      <point x="8" y="265" type="curve"/>
      <point x="63" y="222" type="line"/>
      <point x="149" y="271"/>
      <point x="208" y="326"/>
    </contour>
    <contour>
      <point x="429" y="47" type="curve"/>
      <point x="463" y="63"/>
      <point x="484" y="83"/>
      <point x="506" y="117" type="curve"/>
      <point x="418" y="176"/>
      <point x="363" y="233"/>
      <point x="319" y="299" type="curve"/>
      <point x="243" y="265" type="line"/>
      <point x="288" y="179"/>
      <point x="350" y="110"/>
    </contour>
    <contour>
      <point x="505" y="401" type="curve"/>
      <point x="489" y="426"/>
      <point x="458" y="449"/>
      <point x="427" y="466" type="curve"/>
      <point x="372" y="376"/>
      <point x="313" y="315"/>
      <point x="243" y="265" type="curve"/>
      <point x="298" y="222" type="line"/>
      <point x="384" y="271"/>
      <point x="443" y="326"/>
    </contour>
  </outline>
</glyph>
<glyph name="macron" format="1">
  <advance width="259"/>
  <unicode hex="00AF"/>
  <outline>
    <contour>
      <point x="20" y="690"/>
      <point x="19" y="655"/>
      <point x="21" y="636" type="curve"/>
      <point x="59" y="620"/>
      <point x="135" y="615"/>
      <point x="237" y="629" type="curve"/>
      <point x="240" y="654"/>
      <point x="240" y="678"/>
      <point x="238" y="702" type="curve"/>
      <point x="163" y="694"/>
      <point x="97" y="697"/>
      <point x="24" y="709" type="curve"/>
    </contour>
    <contour>
      <point x="127.0" y="560.0" type="move" name="_top"/>
    </contour>
  </outline>
</glyph>
<glyph name="degree" format="1">
  <advance width="262"/>
  <unicode hex="00B0"/>
  <outline>
    <contour>
      <point x="140" y="745" type="curve" smooth="yes"/>
      <point x="56" y="745"/>
      <point x="10" y="697"/>
      <point x="10" y="630" type="curve" smooth="yes"/>
      <point x="10" y="563"/>
      <point x="54" y="517"/>
      <point x="125" y="517" type="curve" smooth="yes"/>
      <point x="208" y="517"/>
      <point x="252" y="567"/>
      <point x="252" y="648" type="curve" smooth="yes"/>
      <point x="252" y="706"/>
      <point x="210" y="745"/>
    </contour>
    <contour>
      <point x="134" y="698" type="curve" smooth="yes"/>
      <point x="157" y="698"/>
      <point x="179" y="683"/>
      <point x="179" y="639" type="curve" smooth="yes"/>
      <point x="179" y="595"/>
      <point x="157" y="568"/>
      <point x="129" y="568" type="curve" smooth="yes"/>
      <point x="100" y="568"/>
      <point x="81" y="590"/>
      <point x="81" y="628" type="curve" smooth="yes"/>
      <point x="81" y="671"/>
      <point x="103" y="698"/>
    </contour>
  </outline>
</glyph>
<glyph name="acute" format="1">
  <advance width="260"/>
  <unicode hex="00B4"/>
  <outline>
    <contour>
      <point x="131" y="571" type="curve"/>
      <point x="170" y="631"/>
      <point x="191" y="684"/>
      <point x="199" y="739" type="curve"/>
      <point x="165" y="752"/>
      <point x="119" y="752"/>
      <point x="90" y="748" type="curve"/>
      <point x="86" y="694"/>
      <point x="74" y="639"/>
      <point x="54" y="581" type="curve"/>
      <point x="79" y="574"/>
      <point x="103" y="571"/>
    </contour>
    <contour>
      <point x="88.0" y="560.0" type="move" name="_top"/>
    </contour>
  </outline>
</glyph>
<glyph name="uni00B5" format="1">
  <advance width="497"/>
  <unicode hex="00B5"/>
  <outline>
    <contour>
      <point x="362" y="-11" type="curve" smooth="yes"/>
      <point x="397" y="-11"/>
      <point x="435" y="-4"/>
      <point x="456" y="6" type="curve"/>
      <point x="456" y="174"/>
      <point x="442" y="438"/>
      <point x="430" y="566" type="curve"/>
      <point x="394" y="566"/>
      <point x="346" y="560"/>
      <point x="321" y="552" type="curve"/>
      <point x="335" y="368"/>
      <point x="323" y="113"/>
      <point x="310" y="-5" type="curve"/>
      <point x="330" y="-9"/>
      <point x="346" y="-11"/>
    </contour>
    <contour>
      <point x="92" y="116" type="line"/>
      <point x="103" y="34"/>
      <point x="134" y="-2"/>
      <point x="189" y="-2" type="curve" smooth="yes"/>
      <point x="250" y="-2"/>
      <point x="305" y="52"/>
      <point x="351" y="163" type="curve"/>
      <point x="333" y="236" type="line"/>
      <point x="305" y="144"/>
      <point x="259" y="96"/>
      <point x="219" y="96" type="curve" smooth="yes"/>
      <point x="181" y="96"/>
      <point x="167" y="125"/>
      <point x="167" y="188" type="curve" smooth="yes"/>
      <point x="167" y="285"/>
      <point x="184" y="402"/>
      <point x="202" y="501" type="curve"/>
      <point x="162" y="510"/>
      <point x="118" y="516"/>
      <point x="80" y="517" type="curve"/>
      <point x="62" y="432"/>
      <point x="39" y="304"/>
      <point x="37" y="165" type="curve" smooth="yes"/>
      <point x="34" y="53"/>
      <point x="35" y="-48"/>
      <point x="42" y="-191" type="curve"/>
      <point x="60" y="-200"/>
      <point x="85" y="-207"/>
      <point x="114" y="-207" type="curve" smooth="yes"/>
      <point x="131" y="-207"/>
      <point x="144" y="-206"/>
      <point x="162" y="-201" type="curve"/>
      <point x="132" y="-97"/>
      <point x="111" y="67"/>
      <point x="111" y="197" type="curve"/>
    </contour>
  </outline>
</glyph>
<glyph name="cedilla" format="1">
  <advance width="261"/>
  <unicode hex="00B8"/>
  <outline>
    <contour>
      <point x="121" y="-227" type="curve" smooth="yes"/>
      <point x="195" y="-227"/>
      <point x="242" y="-186"/>
      <point x="242" y="-128" type="curve" smooth="yes"/>
      <point x="242" y="-80"/>
      <point x="207" y="-48"/>
      <point x="155" y="-48" type="curve" smooth="yes"/>
      <point x="129" y="-48"/>
      <point x="109" y="-56"/>
      <point x="84" y="-69" type="curve"/>
      <point x="112" y="-86" type="line"/>
      <point x="132" y="-53"/>
      <point x="140" y="-25"/>
      <point x="143" y="0" type="curve"/>
      <point x="91" y="12" type="line"/>
      <point x="89" y="-20"/>
      <point x="78" y="-55"/>
      <point x="61" y="-83" type="curve"/>
      <point x="66" y="-91"/>
      <point x="77" y="-101"/>
      <point x="86" y="-108" type="curve"/>
      <point x="98" y="-101"/>
      <point x="108" y="-98"/>
      <point x="121" y="-98" type="curve" smooth="yes"/>
      <point x="144" y="-98"/>
      <point x="160" y="-113"/>
      <point x="160" y="-135" type="curve" smooth="yes"/>
      <point x="160" y="-160"/>
      <point x="144" y="-174"/>
      <point x="119" y="-174" type="curve" smooth="yes"/>
      <point x="93" y="-174"/>
      <point x="73" y="-155"/>
      <point x="64" y="-127" type="curve"/>
      <point x="47" y="-134"/>
      <point x="32" y="-142"/>
      <point x="13" y="-155" type="curve"/>
      <point x="31" y="-204"/>
      <point x="71" y="-227"/>
    </contour>
    <contour>
      <point x="114.0" y="0.0" type="move" name="_bottom"/>
    </contour>
  </outline>
</glyph>
<glyph name="ordmasculine" format="1">
  <advance width="293"/>
  <unicode hex="00BA"/>
  <outline>
    <contour>
      <point x="169" y="721" type="curve" smooth="yes"/>
      <point x="75" y="721"/>
      <point x="12" y="648"/>
      <point x="12" y="548" type="curve" smooth="yes"/>
      <point x="12" y="478"/>
      <point x="44" y="412"/>
      <point x="124" y="412" type="curve" smooth="yes"/>
      <point x="242" y="412"/>
      <point x="281" y="527"/>
      <point x="281" y="604" type="curve" smooth="yes"/>
      <point x="281" y="679"/>
      <point x="240" y="721"/>
    </contour>
    <contour>
      <point x="148" y="665" type="curve" smooth="yes"/>
      <point x="170" y="665"/>
      <point x="182" y="640"/>
      <point x="182" y="575" type="curve" smooth="yes"/>
      <point x="182" y="527"/>
      <point x="171" y="468"/>
      <point x="145" y="468" type="curve" smooth="yes"/>
      <point x="119" y="468"/>
      <point x="109" y="520"/>
      <point x="109" y="560" type="curve" smooth="yes"/>
      <point x="109" y="623"/>
      <point x="126" y="665"/>
    </contour>
  </outline>
</glyph>
<glyph name="questiondown" format="1">
  <advance width="428"/>
  <unicode hex="00BF"/>
  <outline>
    <contour>
      <point x="230" y="187" type="line"/>
      <point x="102" y="165"/>
      <point x="27" y="86"/>
      <point x="27" y="-20" type="curve" smooth="yes"/>
      <point x="27" y="-133"/>
      <point x="114" y="-211"/>
      <point x="228" y="-211" type="curve" smooth="yes"/>
      <point x="365" y="-211"/>
      <point x="430" y="-128"/>
      <point x="438" y="6" type="curve"/>
      <point x="405" y="20"/>
      <point x="366" y="27"/>
      <point x="321" y="27" type="curve"/>
      <point x="321" y="-77"/>
      <point x="287" y="-137"/>
      <point x="234" y="-137" type="curve" smooth="yes"/>
      <point x="184" y="-137"/>
      <point x="159" y="-87"/>
      <point x="159" y="-19" type="curve" smooth="yes"/>
      <point x="159" y="68"/>
      <point x="207" y="133"/>
      <point x="309" y="154" type="curve"/>
    </contour>
    <contour>
      <point x="309" y="154" type="line"/>
      <point x="307" y="211"/>
      <point x="299" y="277"/>
      <point x="291" y="332" type="curve"/>
      <point x="259" y="333"/>
      <point x="223" y="330"/>
      <point x="199" y="325" type="curve"/>
      <point x="198" y="255"/>
      <point x="198" y="195"/>
      <point x="197" y="142" type="curve"/>
    </contour>
    <contour>
      <point x="173" y="557" type="curve"/>
      <point x="177" y="516"/>
      <point x="179" y="484"/>
      <point x="183" y="442" type="curve"/>
      <point x="223" y="441"/>
      <point x="251" y="440"/>
      <point x="297" y="441" type="curve"/>
      <point x="299" y="476"/>
      <point x="299" y="512"/>
      <point x="295" y="554" type="curve"/>
      <point x="280" y="560"/>
      <point x="258" y="564"/>
      <point x="233" y="564" type="curve" smooth="yes"/>
      <point x="213" y="563"/>
      <point x="196" y="562"/>
    </contour>
  </outline>
</glyph>
<glyph name="AE" format="1">
  <advance width="858"/>
  <unicode hex="00C6"/>
  <outline>
    <contour>
      <point x="396" y="686" type="curve"/>
      <point x="357" y="695"/>
      <point x="319" y="703"/>
      <point x="279" y="704" type="curve"/>
      <point x="209" y="444"/>
      <point x="142" y="259"/>
      <point x="9" y="30" type="curve"/>
      <point x="31" y="3"/>
      <point x="68" y="-19"/>
      <point x="115" y="-28" type="curve"/>
      <point x="221" y="165"/>
      <point x="327" y="408"/>
    </contour>
    <contour>
      <point x="822" y="-14" type="curve"/>
      <point x="823" y="16"/>
      <point x="819" y="65"/>
      <point x="811" y="88" type="curve"/>
      <point x="731" y="71"/>
      <point x="612" y="58"/>
      <point x="536" y="56" type="curve"/>
      <point x="523" y="158"/>
      <point x="515" y="261"/>
      <point x="511" y="346" type="curve" smooth="yes"/>
      <point x="504" y="481"/>
      <point x="506" y="593"/>
      <point x="513" y="678" type="curve"/>
      <point x="369" y="685" type="line"/>
      <point x="372" y="486"/>
      <point x="397" y="195"/>
      <point x="430" y="-44" type="curve"/>
      <point x="557" y="-42"/>
      <point x="734" y="-29"/>
    </contour>
    <contour>
      <point x="753" y="329" type="curve"/>
      <point x="754" y="369"/>
      <point x="751" y="400"/>
      <point x="743" y="431" type="curve"/>
      <point x="645" y="426"/>
      <point x="566" y="411"/>
      <point x="477" y="390" type="curve"/>
      <point x="483" y="302" type="line"/>
      <point x="573" y="317"/>
      <point x="648" y="324"/>
    </contour>
    <contour>
      <point x="787" y="627" type="curve"/>
      <point x="793" y="656"/>
      <point x="798" y="693"/>
      <point x="798" y="733" type="curve"/>
      <point x="632" y="731"/>
      <point x="513" y="711"/>
      <point x="369" y="685" type="curve"/>
      <point x="387" y="593" type="line"/>
      <point x="514" y="615"/>
      <point x="645" y="626"/>
    </contour>
    <contour>
      <point x="444" y="266" type="line"/>
      <point x="350" y="265"/>
      <point x="260" y="256"/>
      <point x="175" y="239" type="curve"/>
      <point x="179" y="155" type="line"/>
      <point x="263" y="169"/>
      <point x="359" y="175"/>
      <point x="454" y="175" type="curve"/>
    </contour>
  </outline>
</glyph>
<glyph name="Oslash" format="1">
  <advance width="612"/>
  <unicode hex="00D8"/>
  <outline>
    <contour>
      <point x="44" y="-35" type="curve"/>
      <point x="68" y="-59"/>
      <point x="89" y="-70"/>
      <point x="125" y="-82" type="curve"/>
      <point x="288" y="202"/>
      <point x="425" y="450"/>
      <point x="560" y="742" type="curve"/>
      <point x="537" y="765"/>
      <point x="506" y="784"/>
      <point x="479" y="792" type="curve"/>
      <point x="330" y="472"/>
      <point x="198" y="215"/>
    </contour>
    <contour>
      <point x="576" y="410" type="curve" smooth="yes"/>
      <point x="576" y="619"/>
      <point x="491" y="733"/>
      <point x="339" y="733" type="curve" smooth="yes"/>
      <point x="155" y="733"/>
      <point x="35" y="561"/>
      <point x="35" y="332" type="curve" smooth="yes"/>
      <point x="35" y="141"/>
      <point x="114" y="-20"/>
      <point x="272" y="-20" type="curve" smooth="yes"/>
      <point x="503" y="-20"/>
      <point x="576" y="244"/>
    </contour>
    <contour>
      <point x="295" y="68" type="curve" smooth="yes"/>
      <point x="200" y="68"/>
      <point x="168" y="223"/>
      <point x="168" y="351" type="curve" smooth="yes"/>
      <point x="168" y="526"/>
      <point x="226" y="644"/>
      <point x="314" y="644" type="curve" smooth="yes"/>
      <point x="400" y="644"/>
      <point x="441" y="569"/>
      <point x="441" y="377" type="curve" smooth="yes"/>
      <point x="441" y="236"/>
      <point x="407" y="68"/>
    </contour>
  </outline>
</glyph>
<glyph name="germandbls" format="1">
  <advance width="649"/>
  <unicode hex="00DF"/>
  <outline>
    <contour>
      <point x="132" y="379" type="line"/>
      <point x="79" y="386"/>
      <point x="38" y="395"/>
      <point x="18" y="403" type="curve"/>
      <point x="18" y="419"/>
      <point x="24" y="458"/>
      <point x="31" y="466" type="curve"/>
      <point x="57" y="462"/>
      <point x="92" y="459"/>
      <point x="132" y="456" type="curve"/>
    </contour>
    <contour>
      <point x="388" y="416" type="curve" smooth="yes"/>
      <point x="388" y="294"/>
      <point x="625" y="292"/>
      <point x="625" y="129" type="curve" smooth="yes"/>
      <point x="625" y="29"/>
      <point x="562" y="-42"/>
      <point x="454" y="-42" type="curve" smooth="yes"/>
      <point x="356" y="-42"/>
      <point x="284" y="28"/>
      <point x="280" y="139" type="curve"/>
      <point x="305" y="150"/>
      <point x="344" y="156"/>
      <point x="370" y="155" type="curve"/>
      <point x="369" y="78"/>
      <point x="398" y="31"/>
      <point x="451" y="31" type="curve" smooth="yes"/>
      <point x="491" y="31"/>
      <point x="511" y="60"/>
      <point x="511" y="102" type="curve" smooth="yes"/>
      <point x="511" y="218"/>
      <point x="291" y="207"/>
      <point x="291" y="363" type="curve" smooth="yes"/>
      <point x="291" y="412"/>
      <point x="308" y="447"/>
      <point x="341" y="485" type="curve" smooth="yes"/>
      <point x="373" y="521"/>
      <point x="381" y="542"/>
      <point x="381" y="579" type="curve" smooth="yes"/>
      <point x="381" y="617"/>
      <point x="355" y="649"/>
      <point x="313" y="649" type="curve" smooth="yes"/>
      <point x="253" y="649"/>
      <point x="201" y="599"/>
      <point x="201" y="448" type="curve" smooth="yes"/>
      <point x="201" y="278"/>
      <point x="235" y="84"/>
      <point x="256" y="1" type="curve"/>
      <point x="221" y="-11"/>
      <point x="168" y="-21"/>
      <point x="123" y="-21" type="curve"/>
      <point x="110" y="38"/>
      <point x="84" y="236"/>
      <point x="84" y="396" type="curve" smooth="yes"/>
      <point x="84" y="633"/>
      <point x="181" y="727"/>
      <point x="309" y="727" type="curve" smooth="yes"/>
      <point x="403" y="727"/>
      <point x="462" y="662"/>
      <point x="462" y="594" type="curve" smooth="yes"/>
      <point x="462" y="558"/>
      <point x="448" y="532"/>
      <point x="425" y="506" type="curve" smooth="yes"/>
      <point x="400" y="475"/>
      <point x="388" y="452"/>
    </contour>
  </outline>
</glyph>
<glyph name="divide" format="1">
  <advance width="421"/>
  <unicode hex="00F7"/>
  <outline>
    <contour>
      <point x="35" y="368" type="curve"/>
      <point x="31" y="339"/>
      <point x="29" y="316"/>
      <point x="29" y="286" type="curve"/>
      <point x="134" y="272"/>
      <point x="270" y="270"/>
      <point x="381" y="286" type="curve"/>
      <point x="388" y="312"/>
      <point x="392" y="339"/>
      <point x="392" y="366" type="curve"/>
      <point x="256" y="353"/>
      <point x="146" y="354"/>
    </contour>
    <contour>
      <point x="287" y="412" type="curve"/>
      <point x="293" y="452"/>
      <point x="296" y="488"/>
      <point x="297" y="529" type="curve"/>
      <point x="241" y="537"/>
      <point x="195" y="531"/>
      <point x="162" y="524" type="curve"/>
      <point x="162" y="483"/>
      <point x="164" y="457"/>
      <point x="167" y="412" type="curve"/>
      <point x="206" y="407"/>
      <point x="240" y="407"/>
    </contour>
    <contour>
      <point x="281" y="106" type="curve"/>
      <point x="288" y="146"/>
      <point x="290" y="182"/>
      <point x="292" y="223" type="curve"/>
      <point x="235" y="231"/>
      <point x="189" y="225"/>
      <point x="157" y="218" type="curve"/>
      <point x="157" y="177"/>
      <point x="159" y="151"/>
      <point x="162" y="106" type="curve"/>
      <point x="200" y="101"/>
      <point x="235" y="101"/>
    </contour>
  </outline>
</glyph>
<glyph name="oslash" format="1">
  <advance width="492"/>
  <unicode hex="00F8"/>
  <outline>
    <contour>
      <point x="274" y="543" type="curve" smooth="yes"/>
      <point x="128" y="543"/>
      <point x="28" y="417"/>
      <point x="28" y="238" type="curve" smooth="yes"/>
      <point x="28" y="107"/>
      <point x="85" y="-10"/>
      <point x="214" y="-10" type="curve" smooth="yes"/>
      <point x="386" y="-10"/>
      <point x="457" y="171"/>
      <point x="457" y="329" type="curve" smooth="yes"/>
      <point x="457" y="462"/>
      <point x="389" y="543"/>
    </contour>
    <contour>
      <point x="246" y="463" type="curve" smooth="yes"/>
      <point x="298" y="463"/>
      <point x="328" y="412"/>
      <point x="328" y="282" type="curve" smooth="yes"/>
      <point x="328" y="172"/>
      <point x="291" y="70"/>
      <point x="240" y="70" type="curve" smooth="yes"/>
      <point x="177" y="70"/>
      <point x="153" y="174"/>
      <point x="153" y="256" type="curve" smooth="yes"/>
      <point x="153" y="378"/>
      <point x="197" y="463"/>
    </contour>
    <contour>
      <point x="102" y="-67" type="curve"/>
      <point x="225" y="134"/>
      <point x="335" y="332"/>
      <point x="441" y="553" type="curve"/>
      <point x="416" y="576"/>
      <point x="400" y="586"/>
      <point x="370" y="599" type="curve"/>
      <point x="254" y="368"/>
      <point x="149" y="177"/>
      <point x="33" y="-27" type="curve"/>
      <point x="53" y="-44"/>
      <point x="76" y="-59"/>
    </contour>
  </outline>
</glyph>
<glyph name="thorn" format="1">
  <advance width="496"/>
  <unicode hex="00FE"/>
  <outline>
    <contour>
      <point x="146" y="134" type="curve"/>
      <point x="79" y="55" type="line"/>
      <point x="110" y="33"/>
      <point x="150" y="10"/>
      <point x="221" y="10" type="curve" smooth="yes"/>
      <point x="353" y="10"/>
      <point x="466" y="150"/>
      <point x="466" y="367" type="curve" smooth="yes"/>
      <point x="466" y="487"/>
      <point x="414" y="563"/>
      <point x="330" y="563" type="curve" smooth="yes"/>
      <point x="231" y="563"/>
      <point x="165" y="467"/>
      <point x="135" y="339" type="curve"/>
      <point x="169" y="313" type="line"/>
      <point x="191" y="425"/>
      <point x="233" y="464"/>
      <point x="276" y="464" type="curve" smooth="yes"/>
      <point x="314" y="464"/>
      <point x="337" y="426"/>
      <point x="337" y="355" type="curve" smooth="yes"/>
      <point x="337" y="190"/>
      <point x="279" y="85"/>
      <point x="220" y="85" type="curve" smooth="yes"/>
      <point x="189" y="85"/>
      <point x="165" y="105"/>
    </contour>
    <contour>
      <point x="91" y="-227" type="curve"/>
      <point x="128" y="-227"/>
      <point x="174" y="-219"/>
      <point x="199" y="-210" type="curve"/>
      <point x="172" y="43"/>
      <point x="164" y="510"/>
      <point x="209" y="739" type="curve"/>
      <point x="189" y="746"/>
      <point x="172" y="748"/>
      <point x="149" y="748" type="curve" smooth="yes"/>
      <point x="114" y="748"/>
      <point x="85" y="736"/>
      <point x="64" y="722" type="curve"/>
      <point x="36" y="424"/>
      <point x="63" y="30"/>
    </contour>
  </outline>
</glyph>
<glyph name="Aogonek" format="1">
  <advance width="639"/>
  <unicode hex="0104"/>
  <outline>
    <contour>
      <point x="627" y="-70" type="curve"/>
      <point x="580" y="238"/>
      <point x="507" y="468"/>
      <point x="381" y="693" type="curve"/>
      <point x="343" y="702"/>
      <point x="311" y="706"/>
      <point x="262" y="707" type="curve"/>
      <point x="198" y="452"/>
      <point x="138" y="266"/>
      <point x="8" y="31" type="curve"/>
      <point x="31" y="5"/>
      <point x="68" y="-17"/>
      <point x="114" y="-26" type="curve"/>
      <point x="214" y="170"/>
      <point x="281" y="383"/>
      <point x="331" y="603" type="curve"/>
      <point x="298" y="606" type="line"/>
      <point x="398" y="400"/>
      <point x="460" y="188"/>
      <point x="499" y="-110" type="curve"/>
      <point x="551" y="-103"/>
      <point x="592" y="-92"/>
    </contour>
    <contour>
      <point x="485" y="187" type="curve"/>
      <point x="476" y="279" type="line"/>
      <point x="371" y="279"/>
      <point x="263" y="270"/>
      <point x="165" y="251" type="curve"/>
      <point x="169" y="167" type="line"/>
      <point x="264" y="183"/>
      <point x="375" y="189"/>
    </contour>
    <contour>
      <point x="587" y="-85" type="curve"/>
      <point x="552" y="-71" type="line"/>
      <point x="479" y="-115"/>
      <point x="440" y="-159"/>
      <point x="440" y="-217" type="curve" smooth="yes"/>
      <point x="440" y="-263"/>
      <point x="476" y="-293"/>
      <point x="531" y="-293" type="curve" smooth="yes"/>
      <point x="581" y="-293"/>
      <point x="616" y="-271"/>
      <point x="641" y="-234" type="curve"/>
      <point x="634" y="-216"/>
      <point x="624" y="-199"/>
      <point x="611" y="-188" type="curve"/>
      <point x="593" y="-217"/>
      <point x="575" y="-230"/>
      <point x="553" y="-230" type="curve" smooth="yes"/>
      <point x="533" y="-230"/>
      <point x="522" y="-216"/>
      <point x="522" y="-194" type="curve" smooth="yes"/>
      <point x="522" y="-159"/>
      <point x="542" y="-121"/>
    </contour>
  </outline>
</glyph>
<glyph name="Eogonek" format="1">
  <advance width="557"/>
  <unicode hex="0118"/>
  <outline>
    <contour>
      <point x="521" y="-12" type="curve"/>
      <point x="522" y="18"/>
      <point x="518" y="67"/>
      <point x="510" y="90" type="curve"/>
      <point x="430" y="73"/>
      <point x="311" y="60"/>
      <point x="235" y="58" type="curve"/>
      <point x="222" y="160"/>
      <point x="214" y="263"/>
      <point x="210" y="348" type="curve" smooth="yes"/>
      <point x="203" y="483"/>
      <point x="205" y="595"/>
      <point x="212" y="680" type="curve"/>
      <point x="61" y="687" type="line"/>
      <point x="64" y="488"/>
      <point x="94" y="183"/>
      <point x="129" y="-42" type="curve"/>
      <point x="256" y="-40"/>
      <point x="433" y="-27"/>
    </contour>
    <contour>
      <point x="452" y="331" type="curve"/>
      <point x="453" y="371"/>
      <point x="450" y="402"/>
      <point x="442" y="433" type="curve"/>
      <point x="344" y="428"/>
      <point x="265" y="413"/>
      <point x="176" y="392" type="curve"/>
      <point x="182" y="304" type="line"/>
      <point x="272" y="319"/>
      <point x="347" y="326"/>
    </contour>
    <contour>
      <point x="486" y="629" type="curve"/>
      <point x="492" y="658"/>
      <point x="497" y="695"/>
      <point x="497" y="735" type="curve"/>
      <point x="331" y="733"/>
      <point x="205" y="713"/>
      <point x="61" y="687" type="curve"/>
      <point x="86" y="595" type="line"/>
      <point x="213" y="617"/>
      <point x="344" y="628"/>
    </contour>
    <contour>
      <point x="521" y="-12" type="curve"/>
      <point x="486" y="2" type="line"/>
      <point x="413" y="-42"/>
      <point x="374" y="-86"/>
      <point x="374" y="-141" type="curve" smooth="yes"/>
      <point x="374" y="-190"/>
      <point x="408" y="-220"/>
      <point x="463" y="-220" type="curve" smooth="yes"/>
      <point x="513" y="-220"/>
      <point x="550" y="-197"/>
      <point x="575" y="-161" type="curve"/>
      <point x="568" y="-142"/>
      <point x="558" y="-125"/>
      <point x="545" y="-114" type="curve"/>
      <point x="527" y="-144"/>
      <point x="509" y="-156"/>
      <point x="487" y="-156" type="curve" smooth="yes"/>
      <point x="467" y="-156"/>
      <point x="456" y="-142"/>
      <point x="456" y="-120" type="curve" smooth="yes"/>
      <point x="456" y="-85"/>
      <point x="476" y="-48"/>
    </contour>
  </outline>
</glyph>
<glyph name="Iogonek" format="1">
  <advance width="275"/>
  <unicode hex="012E"/>
  <outline>
    <contour>
      <point x="191" y="-17" type="curve"/>
      <point x="201" y="171"/>
      <point x="204" y="343"/>
      <point x="204" y="503" type="curve" smooth="yes"/>
      <point x="204" y="567"/>
      <point x="203" y="622"/>
      <point x="200" y="677" type="curve"/>
      <point x="179" y="682"/>
      <point x="164" y="684"/>
      <point x="142" y="684" type="curve" smooth="yes"/>
      <point x="107" y="684"/>
      <point x="79" y="674"/>
      <point x="59" y="662" type="curve"/>
      <point x="80" y="445"/>
      <point x="86" y="200"/>
      <point x="84" y="-30" type="curve"/>
      <point x="122" y="-29"/>
      <point x="169" y="-23"/>
    </contour>
    <contour>
      <point x="176" y="-20" type="curve"/>
      <point x="142" y="-6" type="line"/>
      <point x="69" y="-50"/>
      <point x="29" y="-94"/>
      <point x="29" y="-151" type="curve" smooth="yes"/>
      <point x="29" y="-198"/>
      <point x="66" y="-228"/>
      <point x="121" y="-228" type="curve" smooth="yes"/>
      <point x="171" y="-228"/>
      <point x="205" y="-205"/>
      <point x="231" y="-169" type="curve"/>
      <point x="223" y="-150"/>
      <point x="214" y="-133"/>
      <point x="200" y="-122" type="curve"/>
      <point x="183" y="-152"/>
      <point x="165" y="-164"/>
      <point x="143" y="-164" type="curve" smooth="yes"/>
      <point x="122" y="-164"/>
      <point x="111" y="-150"/>
      <point x="111" y="-128" type="curve" smooth="yes"/>
      <point x="111" y="-93"/>
      <point x="132" y="-56"/>
    </contour>
  </outline>
</glyph>
<glyph name="iogonek" format="1">
  <advance width="246"/>
  <unicode hex="012F"/>
  <outline>
    <contour>
      <point x="163" y="3" type="curve"/>
      <point x="160" y="206"/>
      <point x="179" y="408"/>
      <point x="205" y="517" type="curve"/>
      <point x="188" y="520"/>
      <point x="172" y="522"/>
      <point x="157" y="522" type="curve" smooth="yes"/>
      <point x="124" y="522"/>
      <point x="93" y="515"/>
      <point x="68" y="501" type="curve"/>
      <point x="42" y="359"/>
      <point x="38" y="171"/>
      <point x="59" y="-8" type="curve"/>
      <point x="67" y="-10"/>
      <point x="77" y="-11"/>
      <point x="90" y="-11" type="curve" smooth="yes"/>
      <point x="115" y="-11"/>
      <point x="144" y="-6"/>
    </contour>
    <contour>
      <point x="202" y="612" type="curve"/>
      <point x="210" y="652"/>
      <point x="226" y="704"/>
      <point x="238" y="733" type="curve"/>
      <point x="222" y="741"/>
      <point x="200" y="747"/>
      <point x="171" y="747" type="curve" smooth="yes"/>
      <point x="142" y="748"/>
      <point x="120" y="743"/>
      <point x="99" y="733" type="curve"/>
      <point x="90" y="712"/>
      <point x="87" y="683"/>
      <point x="87" y="662" type="curve" smooth="yes"/>
      <point x="87" y="642"/>
      <point x="90" y="624"/>
      <point x="94" y="607" type="curve"/>
      <point x="141" y="606"/>
      <point x="176" y="608"/>
    </contour>
    <contour>
      <point x="144" y="-3" type="curve"/>
      <point x="110" y="11" type="line"/>
      <point x="37" y="-33"/>
      <point x="-2" y="-77"/>
      <point x="-2" y="-134" type="curve" smooth="yes"/>
      <point x="-2" y="-181"/>
      <point x="34" y="-211"/>
      <point x="89" y="-211" type="curve" smooth="yes"/>
      <point x="139" y="-211"/>
      <point x="173" y="-188"/>
      <point x="199" y="-152" type="curve"/>
      <point x="191" y="-133"/>
      <point x="182" y="-116"/>
      <point x="168" y="-105" type="curve"/>
      <point x="151" y="-135"/>
      <point x="133" y="-147"/>
      <point x="111" y="-147" type="curve" smooth="yes"/>
      <point x="90" y="-147"/>
      <point x="79" y="-133"/>
      <point x="79" y="-111" type="curve" smooth="yes"/>
      <point x="79" y="-76"/>
      <point x="100" y="-39"/>
    </contour>
  </outline>
</glyph>
<glyph name="Lslash" format="1">
  <advance width="494"/>
  <unicode hex="0141"/>
  <outline>
    <contour>
      <point x="494" y="-72" type="curve"/>
      <point x="494" y="-42"/>
      <point x="486" y="7"/>
      <point x="480" y="29" type="curve"/>
      <point x="398" y="29"/>
      <point x="304" y="19"/>
      <point x="222" y="2" type="curve"/>
      <point x="203" y="132"/>
      <point x="199" y="257"/>
      <point x="198" y="377" type="curve" smooth="yes"/>
      <point x="198" y="488"/>
      <point x="201" y="591"/>
      <point x="211" y="672" type="curve"/>
      <point x="199" y="674"/>
      <point x="186" y="675"/>
      <point x="174" y="675" type="curve" smooth="yes"/>
      <point x="132" y="675"/>
      <point x="97" y="669"/>
      <point x="63" y="659" type="curve"/>
      <point x="60" y="430"/>
      <point x="83" y="124"/>
      <point x="116" y="-101" type="curve"/>
      <point x="243" y="-83"/>
      <point x="344" y="-73"/>
    </contour>
    <contour>
      <point x="-5" y="88" type="curve"/>
      <point x="146" y="176"/>
      <point x="277" y="265"/>
      <point x="414" y="370" type="curve"/>
      <point x="402" y="402"/>
      <point x="384" y="432"/>
      <point x="363" y="450" type="curve"/>
      <point x="222" y="340"/>
      <point x="94" y="250"/>
      <point x="-53" y="163" type="curve"/>
      <point x="-41" y="131"/>
      <point x="-29" y="110"/>
    </contour>
  </outline>
</glyph>
<glyph name="lslash" format="1">
  <advance width="249"/>
  <unicode hex="0142"/>
  <outline>
    <contour>
      <point x="56" y="721" type="curve"/>
      <point x="47" y="461"/>
      <point x="57" y="188"/>
      <point x="76" y="-61" type="curve"/>
      <point x="111" y="-61"/>
      <point x="165" y="-55"/>
      <point x="187" y="-48" type="curve"/>
      <point x="178" y="184"/>
      <point x="180" y="534"/>
      <point x="200" y="734" type="curve"/>
      <point x="178" y="740"/>
      <point x="158" y="742"/>
      <point x="137" y="742" type="curve" smooth="yes"/>
      <point x="103" y="742"/>
      <point x="73" y="732"/>
    </contour>
    <contour>
      <point x="-20" y="151" type="curve"/>
      <point x="103" y="233"/>
      <point x="214" y="313"/>
      <point x="324" y="402" type="curve"/>
      <point x="311" y="434"/>
      <point x="293" y="463"/>
      <point x="271" y="481" type="curve"/>
      <point x="159" y="387"/>
      <point x="50" y="307"/>
      <point x="-70" y="225" type="curve"/>
      <point x="-57" y="193"/>
      <point x="-44" y="173"/>
    </contour>
  </outline>
</glyph>
<glyph name="oe" format="1">
  <advance width="788"/>
  <unicode hex="0153"/>
  <outline>
    <contour>
      <point x="242" y="445" type="curve" smooth="yes"/>
      <point x="193" y="445"/>
      <point x="149" y="361"/>
      <point x="149" y="238" type="curve" smooth="yes"/>
      <point x="149" y="157"/>
      <point x="174" y="52"/>
      <point x="236" y="52" type="curve" smooth="yes"/>
      <point x="287" y="52"/>
      <point x="324" y="155"/>
      <point x="324" y="264" type="curve" smooth="yes"/>
      <point x="324" y="395"/>
      <point x="295" y="445"/>
    </contour>
    <contour>
      <point x="390" y="100" type="line" smooth="yes"/>
      <point x="345" y="19"/>
      <point x="287" y="-27"/>
      <point x="209" y="-27" type="curve" smooth="yes"/>
      <point x="88" y="-27"/>
      <point x="24" y="81"/>
      <point x="24" y="221" type="curve" smooth="yes"/>
      <point x="24" y="399"/>
      <point x="124" y="525"/>
      <point x="263" y="525" type="curve" smooth="yes"/>
      <point x="352" y="525"/>
      <point x="417" y="468"/>
      <point x="443" y="370" type="curve" smooth="yes"/>
      <point x="381" y="382" type="line" smooth="yes"/>
      <point x="426" y="467"/>
      <point x="498" y="522"/>
      <point x="577" y="522" type="curve" smooth="yes"/>
      <point x="669" y="522"/>
      <point x="723" y="461"/>
      <point x="723" y="376" type="curve" smooth="yes"/>
      <point x="723" y="328"/>
      <point x="712" y="276"/>
      <point x="699" y="241" type="curve"/>
      <point x="662" y="225"/>
      <point x="611" y="220"/>
      <point x="553" y="220" type="curve" smooth="yes"/>
      <point x="507" y="220"/>
      <point x="456" y="229"/>
      <point x="408" y="249" type="curve"/>
      <point x="412" y="324" type="line"/>
      <point x="464" y="296"/>
      <point x="521" y="289"/>
      <point x="555" y="289" type="curve" smooth="yes"/>
      <point x="567" y="289"/>
      <point x="587" y="291"/>
      <point x="594" y="293" type="curve"/>
      <point x="601" y="319"/>
      <point x="608" y="353"/>
      <point x="608" y="384" type="curve" smooth="yes"/>
      <point x="608" y="424"/>
      <point x="598" y="449"/>
      <point x="563" y="449" type="curve" smooth="yes"/>
      <point x="495" y="449"/>
      <point x="446" y="310"/>
      <point x="446" y="195" type="curve" smooth="yes"/>
      <point x="446" y="108"/>
      <point x="473" y="40"/>
      <point x="530" y="40" type="curve" smooth="yes"/>
      <point x="575" y="40"/>
      <point x="624" y="101"/>
      <point x="640" y="157" type="curve"/>
      <point x="673" y="151"/>
      <point x="711" y="131"/>
      <point x="734" y="107" type="curve"/>
      <point x="713" y="40"/>
      <point x="616" y="-38"/>
      <point x="522" y="-38" type="curve" smooth="yes"/>
      <point x="423" y="-38"/>
      <point x="365" y="23"/>
      <point x="340" y="115" type="curve"/>
    </contour>
  </outline>
</glyph>
<glyph name="uogonek" format="1">
  <advance width="467"/>
  <unicode hex="0173"/>
  <outline>
    <contour>
      <point x="307" y="14" type="curve" smooth="yes"/>
      <point x="402" y="70"/>
      <point x="432" y="213"/>
      <point x="432" y="368" type="curve" smooth="yes"/>
      <point x="432" y="416"/>
      <point x="428" y="464"/>
      <point x="422" y="495" type="curve"/>
      <point x="385" y="495"/>
      <point x="329" y="488"/>
      <point x="292" y="472" type="curve"/>
      <point x="296" y="455"/>
      <point x="304" y="390"/>
      <point x="304" y="321" type="curve" smooth="yes"/>
      <point x="304" y="201"/>
      <point x="287" y="72"/>
      <point x="231" y="72" type="curve" smooth="yes"/>
      <point x="183" y="72"/>
      <point x="164" y="177"/>
      <point x="164" y="283" type="curve" smooth="yes"/>
      <point x="164" y="373"/>
      <point x="174" y="452"/>
      <point x="190" y="516" type="curve"/>
      <point x="180" y="522"/>
      <point x="162" y="526"/>
      <point x="136" y="526" type="curve" smooth="yes"/>
      <point x="113" y="526"/>
      <point x="91" y="522"/>
      <point x="78" y="518" type="curve"/>
      <point x="59" y="482"/>
      <point x="35" y="370"/>
      <point x="35" y="268" type="curve" smooth="yes"/>
      <point x="35" y="129"/>
      <point x="72" y="-10"/>
      <point x="211" y="-10" type="curve" smooth="yes"/>
      <point x="233" y="-10"/>
      <point x="250" y="-6"/>
      <point x="262" y="-1" type="curve"/>
      <point x="243" y="17" type="line"/>
      <point x="170" y="-30"/>
      <point x="136" y="-81"/>
      <point x="136" y="-126" type="curve" smooth="yes"/>
      <point x="136" y="-180"/>
      <point x="174" y="-207"/>
      <point x="228" y="-207" type="curve" smooth="yes"/>
      <point x="275" y="-207"/>
      <point x="312" y="-186"/>
      <point x="337" y="-150" type="curve"/>
      <point x="330" y="-131"/>
      <point x="320" y="-114"/>
      <point x="307" y="-103" type="curve"/>
      <point x="289" y="-133"/>
      <point x="271" y="-145"/>
      <point x="249" y="-145" type="curve" smooth="yes"/>
      <point x="230" y="-145"/>
      <point x="218" y="-130"/>
      <point x="218" y="-109" type="curve" smooth="yes"/>
      <point x="218" y="-72"/>
      <point x="246" y="-23"/>
    </contour>
  </outline>
</glyph>
<glyph name="circumflex" format="1">
  <advance width="260"/>
  <unicode hex="02C6"/>
  <outline>
    <contour>
      <point x="263" y="620" type="curve"/>
      <point x="250" y="604"/>
      <point x="234" y="587"/>
      <point x="205" y="577" type="curve"/>
      <point x="154" y="619"/>
      <point x="134" y="643"/>
      <point x="102" y="695" type="curve"/>
      <point x="148" y="696" type="line"/>
      <point x="122" y="650"/>
      <point x="96" y="617"/>
      <point x="45" y="575" type="curve"/>
      <point x="16" y="586"/>
      <point x="-1" y="604"/>
      <point x="-11" y="616" type="curve"/>
      <point x="39" y="662"/>
      <point x="64" y="695"/>
      <point x="86" y="740" type="curve"/>
      <point x="96" y="742"/>
      <point x="110" y="744"/>
      <point x="122" y="744" type="curve" smooth="yes"/>
      <point x="135" y="744"/>
      <point x="149" y="742"/>
      <point x="164" y="740" type="curve"/>
      <point x="186" y="693"/>
      <point x="218" y="659"/>
    </contour>
    <contour>
      <point x="131.0" y="560.0" type="move" name="_top"/>
    </contour>
  </outline>
</glyph>
<glyph name="uni02C9" format="1">
  <advance width="259"/>
  <unicode hex="02C9"/>
  <outline>
    <contour>
      <point x="24" y="709" type="curve"/>
      <point x="20" y="690"/>
      <point x="19" y="655"/>
      <point x="21" y="636" type="curve"/>
      <point x="59" y="620"/>
      <point x="135" y="615"/>
      <point x="237" y="629" type="curve"/>
      <point x="240" y="654"/>
      <point x="240" y="678"/>
      <point x="238" y="702" type="curve"/>
      <point x="163" y="694"/>
      <point x="97" y="697"/>
    </contour>
  </outline>
</glyph>
<glyph name="breve" format="1">
  <advance width="260"/>
  <unicode hex="02D8"/>
  <outline>
    <contour>
      <point x="47" y="737"/>
      <point x="27" y="734"/>
      <point x="10" y="728" type="curve"/>
      <point x="9" y="689"/>
      <point x="16" y="665"/>
      <point x="30" y="646" type="curve" smooth="yes"/>
      <point x="52" y="617"/>
      <point x="86" y="603"/>
      <point x="130" y="603" type="curve" smooth="yes"/>
      <point x="179" y="603"/>
      <point x="217" y="620"/>
      <point x="236" y="654" type="curve" smooth="yes"/>
      <point x="248" y="678"/>
      <point x="252" y="703"/>
      <point x="250" y="737" type="curve"/>
      <point x="229" y="741"/>
      <point x="202" y="741"/>
      <point x="184" y="736" type="curve"/>
      <point x="195" y="696"/>
      <point x="181" y="669"/>
      <point x="131" y="669" type="curve" smooth="yes"/>
      <point x="79" y="669"/>
      <point x="69" y="695"/>
      <point x="73" y="737" type="curve"/>
    </contour>
    <contour>
      <point x="137.0" y="560.0" type="move" name="_top"/>
    </contour>
  </outline>
</glyph>
<glyph name="ring" format="1">
  <advance width="260"/>
  <unicode hex="02DA"/>
  <outline>
    <contour>
      <point x="142" y="767" type="curve" smooth="yes"/>
      <point x="75" y="767"/>
      <point x="27" y="727"/>
      <point x="27" y="664" type="curve" smooth="yes"/>
      <point x="27" y="613"/>
      <point x="62" y="575"/>
      <point x="118" y="575" type="curve" smooth="yes"/>
      <point x="189" y="575"/>
      <point x="231" y="623"/>
      <point x="231" y="687" type="curve" smooth="yes"/>
      <point x="231" y="737"/>
      <point x="197" y="767"/>
    </contour>
    <contour>
      <point x="131" y="728" type="curve" smooth="yes"/>
      <point x="148" y="728"/>
      <point x="161" y="715"/>
      <point x="161" y="678" type="curve" smooth="yes"/>
      <point x="161" y="643"/>
      <point x="149" y="618"/>
      <point x="127" y="618" type="curve" smooth="yes"/>
      <point x="110" y="618"/>
      <point x="96" y="635"/>
      <point x="96" y="666" type="curve" smooth="yes"/>
      <point x="96" y="705"/>
      <point x="111" y="728"/>
    </contour>
    <contour>
      <point x="130.0" y="560.0" type="move" name="_top"/>
    </contour>
  </outline>
</glyph>
<glyph name="ogonek" format="1">
  <advance width="261"/>
  <unicode hex="02DB"/>
  <outline>
    <contour>
      <point x="172" y="-6" type="curve"/>
      <point x="138" y="8" type="line"/>
      <point x="65" y="-36"/>
      <point x="25" y="-80"/>
      <point x="25" y="-137" type="curve" smooth="yes"/>
      <point x="25" y="-184"/>
      <point x="62" y="-214"/>
      <point x="117" y="-214" type="curve" smooth="yes"/>
      <point x="167" y="-214"/>
      <point x="201" y="-191"/>
      <point x="227" y="-155" type="curve"/>
      <point x="219" y="-136"/>
      <point x="210" y="-119"/>
      <point x="196" y="-108" type="curve"/>
      <point x="179" y="-138"/>
      <point x="161" y="-150"/>
      <point x="139" y="-150" type="curve" smooth="yes"/>
      <point x="118" y="-150"/>
      <point x="107" y="-136"/>
      <point x="107" y="-114" type="curve" smooth="yes"/>
      <point x="107" y="-79"/>
      <point x="128" y="-42"/>
    </contour>
    <contour>
      <point x="144.0" y="0.0" type="move" name="_bottom"/>
    </contour>
  </outline>
</glyph>
<glyph name="tilde" format="1">
  <advance width="260"/>
  <unicode hex="02DC"/>
  <outline>
    <contour>
      <point x="175" y="695" type="curve" smooth="yes"/>
      <point x="142" y="695"/>
      <point x="114" y="731"/>
      <point x="73" y="731" type="curve" smooth="yes"/>
      <point x="26" y="731"/>
      <point x="2" y="694"/>
      <point x="8" y="630" type="curve"/>
      <point x="24" y="624"/>
      <point x="44" y="621"/>
      <point x="60" y="622" type="curve"/>
      <point x="58" y="650"/>
      <point x="66" y="662"/>
      <point x="83" y="662" type="curve" smooth="yes"/>
      <point x="113" y="662"/>
      <point x="138" y="626"/>
      <point x="185" y="626" type="curve" smooth="yes"/>
      <point x="232" y="626"/>
      <point x="257" y="660"/>
      <point x="251" y="727" type="curve"/>
      <point x="236" y="734"/>
      <point x="216" y="737"/>
      <point x="199" y="736" type="curve"/>
      <point x="201" y="706"/>
      <point x="193" y="695"/>
    </contour>
    <contour>
      <point x="130.0" y="560.0" type="move" name="_top"/>
    </contour>
  </outline>
</glyph>
<glyph name="hungarumlaut" format="1">
  <advance width="260"/>
  <unicode hex="02DD"/>
  <outline>
    <component base="acute" xOffset="-65"/>
    <component base="acute" xOffset="87"/>
    <contour>
      <point x="130.0" y="560.0" type="move" name="_top"/>
    </contour>
  </outline>
</glyph>
<glyph name="quotesinglbase" format="1">
  <advance width="185"/>
  <unicode hex="201A"/>
  <outline>
    <contour>
      <point x="158" y="96" type="curve"/>
      <point x="121" y="104"/>
      <point x="78" y="106"/>
      <point x="43" y="102" type="curve"/>
      <point x="47" y="40"/>
      <point x="41" y="-36"/>
      <point x="22" y="-136" type="curve"/>
      <point x="45" y="-143"/>
      <point x="76" y="-148"/>
      <point x="108" y="-149" type="curve"/>
      <point x="145" y="-41"/>
      <point x="157" y="16"/>
    </contour>
  </outline>
</glyph>
<glyph name="daggerdbl" format="1">
  <advance width="484"/>
  <unicode hex="2021"/>
  <outline>
    <contour>
      <point x="288" y="718" type="curve"/>
      <point x="275" y="721"/>
      <point x="259" y="723"/>
      <point x="246" y="723" type="curve" smooth="yes"/>
      <point x="225" y="723"/>
      <point x="202" y="718"/>
      <point x="191" y="712" type="curve"/>
      <point x="195" y="641"/>
      <point x="201" y="582"/>
      <point x="210" y="500" type="curve"/>
      <point x="228" y="499"/>
      <point x="262" y="502"/>
      <point x="273" y="506" type="curve"/>
      <point x="283" y="600"/>
      <point x="286" y="661"/>
    </contour>
    <contour>
      <point x="35" y="555" type="curve"/>
      <point x="32" y="542"/>
      <point x="30" y="531"/>
      <point x="30" y="517" type="curve" smooth="yes"/>
      <point x="29" y="498"/>
      <point x="35" y="472"/>
      <point x="39" y="460" type="curve"/>
      <point x="110" y="470"/>
      <point x="163" y="475"/>
      <point x="250" y="474" type="curve"/>
      <point x="252" y="492"/>
      <point x="250" y="524"/>
      <point x="246" y="536" type="curve"/>
      <point x="156" y="547"/>
      <point x="89" y="556"/>
    </contour>
    <contour>
      <point x="446" y="456" type="curve"/>
      <point x="449" y="468"/>
      <point x="451" y="482"/>
      <point x="451" y="496" type="curve" smooth="yes"/>
      <point x="452" y="515"/>
      <point x="447" y="539"/>
      <point x="442" y="551" type="curve"/>
      <point x="373" y="544"/>
      <point x="313" y="541"/>
      <point x="234" y="537" type="curve"/>
      <point x="232" y="518"/>
      <point x="235" y="487"/>
      <point x="237" y="475" type="curve"/>
      <point x="330" y="463"/>
      <point x="390" y="457"/>
    </contour>
    <contour>
      <point x="213" y="2" type="curve"/>
      <point x="228" y="0"/>
      <point x="260" y="-2"/>
      <point x="277" y="0" type="curve"/>
      <point x="292" y="215"/>
      <point x="294" y="303"/>
      <point x="271" y="515" type="curve"/>
      <point x="253" y="516"/>
      <point x="219" y="513"/>
      <point x="207" y="509" type="curve"/>
      <point x="193" y="317"/>
      <point x="194" y="196"/>
    </contour>
    <contour>
      <point x="193" y="-199" type="curve"/>
      <point x="204" y="-204"/>
      <point x="225" y="-209"/>
      <point x="243" y="-209" type="curve" smooth="yes"/>
      <point x="259" y="-209"/>
      <point x="277" y="-207"/>
      <point x="291" y="-204" type="curve"/>
      <point x="292" y="-142"/>
      <point x="285" y="-71"/>
      <point x="278" y="9" type="curve"/>
      <point x="265" y="11"/>
      <point x="231" y="14"/>
      <point x="214" y="13" type="curve"/>
      <point x="209" y="-85"/>
      <point x="203" y="-136"/>
    </contour>
    <contour>
      <point x="449" y="-46" type="curve"/>
      <point x="453" y="-36"/>
      <point x="458" y="-17"/>
      <point x="457" y="1" type="curve" smooth="yes"/>
      <point x="458" y="16"/>
      <point x="455" y="34"/>
      <point x="452" y="49" type="curve"/>
      <point x="390" y="46"/>
      <point x="320" y="38"/>
      <point x="240" y="32" type="curve"/>
      <point x="238" y="18"/>
      <point x="235" y="-13"/>
      <point x="238" y="-30" type="curve"/>
      <point x="336" y="-34"/>
      <point x="386" y="-39"/>
    </contour>
    <contour>
      <point x="36" y="2" type="curve" smooth="yes"/>
      <point x="36" y="-12"/>
      <point x="39" y="-33"/>
      <point x="42" y="-48" type="curve"/>
      <point x="105" y="-42"/>
      <point x="168" y="-37"/>
      <point x="251" y="-31" type="curve"/>
      <point x="252" y="-18"/>
      <point x="256" y="13"/>
      <point x="253" y="31" type="curve"/>
      <point x="163" y="40"/>
      <point x="106" y="45"/>
      <point x="45" y="47" type="curve"/>
      <point x="40" y="37"/>
      <point x="36" y="20"/>
    </contour>
  </outline>
</glyph>
<glyph name="bullet" format="1">
  <advance width="275"/>
  <unicode hex="2022"/>
  <outline>
    <contour>
      <point x="239" y="245"/>
      <point x="243" y="301"/>
      <point x="245" y="365" type="curve"/>
      <point x="157" y="377"/>
      <point x="86" y="369"/>
      <point x="35" y="357" type="curve"/>
      <point x="35" y="293"/>
      <point x="38" y="253"/>
      <point x="43" y="183" type="curve"/>
      <point x="102" y="176"/>
      <point x="156" y="175"/>
      <point x="229" y="182" type="curve"/>
    </contour>
  </outline>
</glyph>
<glyph name="guilsinglleft" format="1">
  <advance width="290"/>
  <unicode hex="2039"/>
  <outline>
    <contour>
      <point x="194" y="47" type="curve"/>
      <point x="228" y="63"/>
      <point x="249" y="83"/>
      <point x="270" y="117" type="curve"/>
      <point x="183" y="176"/>
      <point x="128" y="233"/>
      <point x="84" y="299" type="curve"/>
      <point x="8" y="265" type="line"/>
      <point x="52" y="179"/>
      <point x="115" y="110"/>
    </contour>
    <contour>
      <point x="270" y="401" type="curve"/>
      <point x="253" y="426"/>
      <point x="222" y="449"/>
      <point x="191" y="466" type="curve"/>
      <point x="137" y="376"/>
      <point x="77" y="315"/>
      <point x="8" y="265" type="curve"/>
      <point x="63" y="222" type="line"/>
      <point x="149" y="271"/>
      <point x="208" y="326"/>
    </contour>
  </outline>
</glyph>
<glyph name="Euro" format="1">
  <advance width="557"/>
  <unicode hex="20AC"/>
  <outline>
    <contour>
      <point x="443" y="212" type="curve"/>
      <point x="433" y="106"/>
      <point x="399" y="45"/>
      <point x="341" y="45" type="curve" smooth="yes"/>
      <point x="268" y="45"/>
      <point x="237" y="150"/>
      <point x="237" y="281" type="curve" smooth="yes"/>
      <point x="237" y="472"/>
      <point x="293" y="586"/>
      <point x="352" y="586" type="curve" smooth="yes"/>
      <point x="398" y="586"/>
      <point x="422" y="543"/>
      <point x="415" y="424" type="curve"/>
      <point x="471" y="424"/>
      <point x="498" y="432"/>
      <point x="533" y="447" type="curve"/>
      <point x="533" y="595"/>
      <point x="477" y="668"/>
      <point x="375" y="668" type="curve" smooth="yes"/>
      <point x="209" y="668"/>
      <point x="100" y="493"/>
      <point x="100" y="266" type="curve" smooth="yes"/>
      <point x="100" y="59"/>
      <point x="188" y="-40"/>
      <point x="313" y="-40" type="curve" smooth="yes"/>
      <point x="426" y="-40"/>
      <point x="489" y="28"/>
      <point x="531" y="161" type="curve"/>
      <point x="510" y="187"/>
      <point x="479" y="207"/>
    </contour>
    <contour>
      <point x="364" y="336" type="curve"/>
      <point x="371" y="355"/>
      <point x="371" y="391"/>
      <point x="369" y="410" type="curve"/>
      <point x="226" y="392"/>
      <point x="137" y="390"/>
      <point x="12" y="400" type="curve"/>
      <point x="8" y="377"/>
      <point x="11" y="337"/>
      <point x="14" y="318" type="curve"/>
      <point x="120" y="307"/>
      <point x="214" y="312"/>
    </contour>
    <contour>
      <point x="367" y="195" type="curve"/>
      <point x="374" y="214"/>
      <point x="374" y="251"/>
      <point x="371" y="270" type="curve"/>
      <point x="229" y="248"/>
      <point x="141" y="247"/>
      <point x="17" y="257" type="curve"/>
      <point x="13" y="234"/>
      <point x="16" y="194"/>
      <point x="19" y="175" type="curve"/>
      <point x="125" y="164"/>
      <point x="217" y="169"/>
    </contour>
  </outline>
</glyph>
<glyph name="uni20BA" format="1">
  <advance width="570"/>
  <unicode hex="20BA"/>
  <outline>
    <contour>
      <point x="555" y="304" type="curve"/>
      <point x="527" y="331"/>
      <point x="497" y="342"/>
      <point x="460" y="347" type="curve"/>
      <point x="434" y="187"/>
      <point x="357" y="131"/>
      <point x="251" y="119" type="curve"/>
      <point x="233" y="234"/>
      <point x="229" y="325"/>
      <point x="229" y="433" type="curve" smooth="yes"/>
      <point x="229" y="544"/>
      <point x="232" y="619"/>
      <point x="242" y="699" type="curve"/>
      <point x="229" y="701"/>
      <point x="217" y="702"/>
      <point x="205" y="702" type="curve" smooth="yes"/>
      <point x="165" y="702"/>
      <point x="128" y="695"/>
      <point x="94" y="685" type="curve"/>
      <point x="88" y="465"/>
      <point x="110" y="223"/>
      <point x="144" y="-5" type="curve"/>
      <point x="397" y="12"/>
      <point x="509" y="87"/>
    </contour>
    <contour>
      <point x="367" y="437" type="curve"/>
      <point x="374" y="456"/>
      <point x="374" y="492"/>
      <point x="371" y="511" type="curve"/>
      <point x="229" y="493"/>
      <point x="139" y="491"/>
      <point x="15" y="501" type="curve"/>
      <point x="10" y="478"/>
      <point x="14" y="438"/>
      <point x="17" y="419" type="curve"/>
      <point x="123" y="408"/>
      <point x="217" y="413"/>
    </contour>
    <contour>
      <point x="369" y="296" type="curve"/>
      <point x="376" y="315"/>
      <point x="376" y="352"/>
      <point x="374" y="371" type="curve"/>
      <point x="231" y="349"/>
      <point x="144" y="348"/>
      <point x="20" y="358" type="curve"/>
      <point x="15" y="335"/>
      <point x="19" y="295"/>
      <point x="22" y="276" type="curve"/>
      <point x="127" y="265"/>
      <point x="220" y="270"/>
    </contour>
  </outline>
</glyph>
<glyph name="uni2113" format="1">
  <advance width="638"/>
  <unicode hex="2113"/>
  <outline>
    <contour>
      <point x="623" y="556" type="curve" smooth="yes"/>
      <point x="623" y="680"/>
      <point x="551" y="765"/>
      <point x="434" y="765" type="curve" smooth="yes"/>
      <point x="253" y="765"/>
      <point x="144" y="563"/>
      <point x="144" y="321" type="curve" smooth="yes"/>
      <point x="144" y="94"/>
      <point x="260" y="-18"/>
      <point x="401" y="-18" type="curve" smooth="yes"/>
      <point x="487" y="-18"/>
      <point x="549" y="10"/>
      <point x="605" y="69" type="curve"/>
      <point x="592" y="98"/>
      <point x="565" y="130"/>
      <point x="537" y="145" type="curve"/>
      <point x="506" y="95"/>
      <point x="470" y="68"/>
      <point x="422" y="68" type="curve" smooth="yes"/>
      <point x="330" y="68"/>
      <point x="284" y="179"/>
      <point x="284" y="365" type="curve" smooth="yes"/>
      <point x="284" y="549"/>
      <point x="342" y="681"/>
      <point x="424" y="681" type="curve" smooth="yes"/>
      <point x="472" y="681"/>
      <point x="500" y="632"/>
      <point x="500" y="548" type="curve" smooth="yes"/>
      <point x="500" y="398"/>
      <point x="387" y="253"/>
      <point x="245" y="253" type="curve" smooth="yes"/>
      <point x="178" y="253"/>
      <point x="125" y="272"/>
      <point x="60" y="317" type="curve"/>
      <point x="41" y="297"/>
      <point x="24" y="261"/>
      <point x="16" y="220" type="curve"/>
      <point x="86" y="179"/>
      <point x="153" y="161"/>
      <point x="239" y="161" type="curve" smooth="yes"/>
      <point x="447" y="161"/>
      <point x="624" y="336"/>
    </contour>
  </outline>
</glyph>
<glyph name="product" format="1">
  <advance width="604"/>
  <unicode hex="220F"/>
  <outline>
    <contour>
      <point x="191" y="706" type="curve"/>
      <point x="44" y="706" type="line"/>
      <point x="44" y="495"/>
      <point x="57" y="193"/>
      <point x="72" y="-36" type="curve"/>
      <point x="110" y="-37"/>
      <point x="161" y="-31"/>
      <point x="186" y="-24" type="curve"/>
      <point x="178" y="210"/>
      <point x="176" y="527"/>
    </contour>
    <contour>
      <point x="560" y="-40" type="curve"/>
      <point x="560" y="160"/>
      <point x="551" y="485"/>
      <point x="540" y="722" type="curve"/>
      <point x="412" y="717" type="line"/>
      <point x="427" y="542"/>
      <point x="436" y="181"/>
      <point x="433" y="-27" type="curve"/>
      <point x="458" y="-34"/>
      <point x="517" y="-40"/>
    </contour>
    <contour>
      <point x="537" y="620" type="curve"/>
      <point x="540" y="724" type="line"/>
      <point x="366" y="730"/>
      <point x="204" y="727"/>
      <point x="44" y="706" type="curve"/>
      <point x="51" y="608" type="line"/>
      <point x="214" y="626"/>
      <point x="372" y="626"/>
    </contour>
  </outline>
</glyph>
<glyph name="minus" format="1">
  <advance width="421"/>
  <unicode hex="2212"/>
  <outline>
    <contour>
      <point x="38" y="368" type="curve"/>
      <point x="33" y="339"/>
      <point x="31" y="316"/>
      <point x="31" y="286" type="curve"/>
      <point x="136" y="272"/>
      <point x="273" y="270"/>
      <point x="384" y="286" type="curve"/>
      <point x="391" y="312"/>
      <point x="394" y="339"/>
      <point x="394" y="366" type="curve"/>
      <point x="258" y="353"/>
      <point x="148" y="354"/>
    </contour>
  </outline>
</glyph>
<glyph name="radical" format="1">
  <advance width="515"/>
  <unicode hex="221A"/>
  <outline>
    <contour>
      <point x="284" y="-83" type="curve"/>
      <point x="411" y="184"/>
      <point x="489" y="428"/>
      <point x="527" y="740" type="curve"/>
      <point x="489" y="755"/>
      <point x="449" y="763"/>
      <point x="409" y="764" type="curve"/>
      <point x="380" y="469"/>
      <point x="334" y="273"/>
      <point x="246" y="48" type="curve"/>
      <point x="203" y="165"/>
      <point x="175" y="258"/>
      <point x="161" y="383" type="curve"/>
      <point x="110" y="380"/>
      <point x="80" y="371"/>
      <point x="40" y="353" type="curve"/>
      <point x="64" y="194"/>
      <point x="110" y="71"/>
      <point x="189" y="-96" type="curve"/>
      <point x="229" y="-96"/>
      <point x="256" y="-93"/>
    </contour>
  </outline>
</glyph>
<glyph name="notequal" format="1">
  <advance width="421"/>
  <unicode hex="2260"/>
  <outline>
    <contour>
      <point x="29" y="295" type="curve"/>
      <point x="25" y="267"/>
      <point x="23" y="244"/>
      <point x="23" y="214" type="curve"/>
      <point x="128" y="199"/>
      <point x="264" y="198"/>
      <point x="375" y="214" type="curve"/>
      <point x="382" y="239"/>
      <point x="386" y="266"/>
      <point x="386" y="294" type="curve"/>
      <point x="250" y="281"/>
      <point x="140" y="281"/>
    </contour>
    <contour>
      <point x="41" y="440" type="curve"/>
      <point x="37" y="411"/>
      <point x="35" y="388"/>
      <point x="35" y="358" type="curve"/>
      <point x="140" y="344"/>
      <point x="276" y="342"/>
      <point x="387" y="358" type="curve"/>
      <point x="394" y="384"/>
      <point x="398" y="411"/>
      <point x="398" y="438" type="curve"/>
      <point x="262" y="425"/>
      <point x="152" y="426"/>
    </contour>
    <contour>
      <point x="276" y="527" type="curve"/>
      <point x="213" y="392"/>
      <point x="155" y="284"/>
      <point x="55" y="140" type="curve"/>
      <point x="77" y="125"/>
      <point x="101" y="114"/>
      <point x="127" y="106" type="curve"/>
      <point x="227" y="240"/>
      <point x="297" y="374"/>
      <point x="351" y="496" type="curve"/>
      <point x="325" y="511"/>
      <point x="303" y="520"/>
    </contour>
  </outline>
</glyph>
<glyph name="caron.alt" format="1">
  <advance width="260"/>
  <outline>
    <contour>
      <point x="144" y="497" type="curve"/>
      <point x="179" y="580"/>
      <point x="194" y="643"/>
      <point x="200" y="722" type="curve"/>
      <point x="169" y="731"/>
      <point x="125" y="734"/>
      <point x="86" y="731" type="curve"/>
      <point x="85" y="652"/>
      <point x="78" y="593"/>
      <point x="60" y="510" type="curve"/>
      <point x="85" y="503"/>
      <point x="112" y="499"/>
    </contour>
  </outline>
</glyph>
<glyph name="commaaccent" format="1">
  <advance width="260"/>
  <outline>
    <contour>
      <point x="187" y="-78" type="curve"/>
      <point x="155" y="-75"/>
      <point x="133" y="-77"/>
      <point x="96" y="-82" type="curve"/>
      <point x="98" y="-143"/>
      <point x="93" y="-194"/>
      <point x="73" y="-261" type="curve"/>
      <point x="95" y="-269"/>
      <point x="118" y="-271"/>
      <point x="148" y="-271" type="curve"/>
      <point x="177" y="-205"/>
      <point x="188" y="-139"/>
    </contour>
  </outline>
</glyph>
<glyph name="foursuperior" format="1">
  <advance width="388"/>
  <outline>
    <contour>
      <point x="367" y="311" type="curve"/>
      <point x="379" y="330"/>
      <point x="386" y="360"/>
      <point x="386" y="384" type="curve"/>
      <point x="305" y="389"/>
      <point x="209" y="399"/>
      <point x="106" y="419" type="curve"/>
      <point x="112" y="397" type="line"/>
      <point x="179" y="500"/>
      <point x="224" y="594"/>
      <point x="263" y="697" type="curve"/>
      <point x="240" y="705"/>
      <point x="202" y="719"/>
      <point x="161" y="719" type="curve"/>
      <point x="118" y="583"/>
      <point x="78" y="503"/>
      <point x="1" y="389" type="curve"/>
      <point x="5" y="371"/>
      <point x="8" y="357"/>
      <point x="14" y="344" type="curve"/>
      <point x="98" y="333"/>
      <point x="291" y="314"/>
    </contour>
    <contour>
      <point x="284" y="224" type="curve"/>
      <point x="292" y="337"/>
      <point x="311" y="451"/>
      <point x="329" y="502" type="curve"/>
      <point x="314" y="505"/>
      <point x="296" y="508"/>
      <point x="281" y="508" type="curve" smooth="yes"/>
      <point x="249" y="507"/>
      <point x="229" y="502"/>
      <point x="215" y="495" type="curve"/>
      <point x="203" y="443"/>
      <point x="195" y="352"/>
      <point x="195" y="279" type="curve" smooth="yes"/>
      <point x="195" y="258"/>
      <point x="195" y="238"/>
      <point x="197" y="219" type="curve"/>
      <point x="206" y="217"/>
      <point x="214" y="216"/>
      <point x="229" y="216" type="curve" smooth="yes"/>
      <point x="253" y="216"/>
      <point x="271" y="219"/>
    </contour>
  </outline>
</glyph>
<glyph name="onesuperior" format="1">
  <advance width="289"/>
  <outline>
    <contour>
      <point x="280" y="699" type="curve"/>
      <point x="267" y="702"/>
      <point x="245" y="704"/>
      <point x="232" y="704" type="curve"/>
      <point x="202" y="704"/>
      <point x="182" y="700"/>
      <point x="168" y="693" type="curve"/>
      <point x="142" y="606"/>
      <point x="122" y="462"/>
      <point x="117" y="349" type="curve" smooth="yes"/>
      <point x="114" y="319"/>
      <point x="112" y="300"/>
      <point x="111" y="274" type="curve"/>
      <point x="121" y="271"/>
      <point x="130" y="270"/>
      <point x="145" y="271" type="curve" smooth="yes"/>
      <point x="169" y="271"/>
      <point x="186" y="275"/>
      <point x="199" y="280" type="curve"/>
      <point x="214" y="450"/>
      <point x="251" y="627"/>
    </contour>
    <contour>
      <point x="218" y="738" type="curve"/>
      <point x="155" y="690"/>
      <point x="84" y="648"/>
      <point x="10" y="615" type="curve"/>
      <point x="23" y="583"/>
      <point x="39" y="563"/>
      <point x="64" y="545" type="curve"/>
      <point x="147" y="594"/>
      <point x="218" y="642"/>
      <point x="280" y="699" type="curve"/>
      <point x="264" y="716"/>
      <point x="244" y="728"/>
    </contour>
  </outline>
</glyph>
<glyph name="revcommaaccent" format="1">
  <advance width="260"/>
  <outline>
    <contour>
      <point x="69" y="590" type="curve"/>
      <point x="99" y="585"/>
      <point x="134" y="584"/>
      <point x="170" y="588" type="curve"/>
      <point x="166" y="653"/>
      <point x="173" y="713"/>
      <point x="191" y="783" type="curve"/>
      <point x="169" y="789"/>
      <point x="142" y="792"/>
      <point x="114" y="793" type="curve"/>
      <point x="82" y="728"/>
      <point x="68" y="652"/>
    </contour>
  </outline>
</glyph>
<glyph name="threesuperior" format="1">
  <advance width="343"/>
  <outline>
    <contour>
      <point x="321" y="634" type="curve"/>
      <point x="321" y="664"/>
      <point x="316" y="693"/>
      <point x="307" y="716" type="curve"/>
      <point x="219" y="716"/>
      <point x="101" y="703"/>
      <point x="20" y="681" type="curve"/>
      <point x="20" y="657"/>
      <point x="23" y="626"/>
      <point x="30" y="604" type="curve"/>
      <point x="140" y="628"/>
      <point x="236" y="632"/>
    </contour>
    <contour>
      <point x="170" y="269" type="curve" smooth="yes"/>
      <point x="261" y="269"/>
      <point x="328" y="330"/>
      <point x="328" y="412" type="curve" smooth="yes"/>
      <point x="328" y="475"/>
      <point x="284" y="523"/>
      <point x="192" y="535" type="curve"/>
      <point x="190" y="518" type="line"/>
      <point x="257" y="563"/>
      <point x="286" y="592"/>
      <point x="321" y="634" type="curve"/>
      <point x="252" y="678" type="line"/>
      <point x="220" y="623"/>
      <point x="165" y="575"/>
      <point x="98" y="542" type="curve"/>
      <point x="98" y="523"/>
      <point x="102" y="503"/>
      <point x="106" y="486" type="curve"/>
      <point x="183" y="496"/>
      <point x="220" y="451"/>
      <point x="220" y="391" type="curve" smooth="yes"/>
      <point x="220" y="344"/>
      <point x="201" y="326"/>
      <point x="176" y="326" type="curve" smooth="yes"/>
      <point x="148" y="326"/>
      <point x="120" y="355"/>
      <point x="120" y="422" type="curve"/>
      <point x="82" y="422"/>
      <point x="50" y="417"/>
      <point x="23" y="405" type="curve"/>
      <point x="28" y="309"/>
      <point x="93" y="269"/>
    </contour>
  </outline>
</glyph>
<glyph name="uni2126" format="1">
  <advance width="715"/>
  <outline>
    <contour>
      <point x="358" y="733" type="curve" smooth="yes"/>
      <point x="550" y="733"/>
      <point x="667" y="605"/>
      <point x="667" y="420" type="curve" smooth="yes"/>
      <point x="667" y="260"/>
      <point x="576" y="134"/>
      <point x="428" y="39" type="curve"/>
      <point x="470" y="81" type="line"/>
      <point x="542" y="90"/>
      <point x="626" y="94"/>
      <point x="697" y="88" type="curve"/>
      <point x="701" y="65"/>
      <point x="705" y="16"/>
      <point x="702" y="-14" type="curve"/>
      <point x="573" y="-3"/>
      <point x="508" y="-2"/>
      <point x="396" y="-9" type="curve"/>
      <point x="393" y="23"/>
      <point x="391" y="44"/>
      <point x="391" y="70" type="curve"/>
      <point x="473" y="173"/>
      <point x="532" y="279"/>
      <point x="532" y="410" type="curve" smooth="yes"/>
      <point x="532" y="554"/>
      <point x="459" y="644"/>
      <point x="355" y="644" type="curve" smooth="yes"/>
      <point x="253" y="644"/>
      <point x="181" y="554"/>
      <point x="181" y="408" type="curve" smooth="yes"/>
      <point x="181" y="280"/>
      <point x="241" y="173"/>
      <point x="322" y="71" type="curve"/>
      <point x="322" y="44"/>
      <point x="320" y="23"/>
      <point x="317" y="-8" type="curve"/>
      <point x="206" y="-1"/>
      <point x="141" y="-3"/>
      <point x="13" y="-14" type="curve"/>
      <point x="11" y="16"/>
      <point x="14" y="66"/>
      <point x="19" y="89" type="curve"/>
      <point x="89" y="95"/>
      <point x="172" y="91"/>
      <point x="243" y="82" type="curve"/>
      <point x="285" y="40" type="line"/>
      <point x="137" y="135"/>
      <point x="46" y="261"/>
      <point x="46" y="421" type="curve" smooth="yes"/>
      <point x="46" y="605"/>
      <point x="166" y="733"/>
    </contour>
  </outline>
</glyph>
